<svg version="1.1" id="Layer_1" xmlns="http://www.w3.org/2000/svg" xmlns:xlink="http://www.w3.org/1999/xlink" x="0px" y="0px"
	 width="100%" viewBox="0 0 546 92" enable-background="new 0 0 546 92" xml:space="preserve">
<path fill="#FCFCFC" opacity="1.000000" stroke="none" 
	d="
M406.000000,93.000000 
	C270.666656,93.000000 135.833328,93.000000 1.000000,93.000000 
	C1.000000,62.333332 1.000000,31.666666 1.000000,1.000000 
	C183.000000,1.000000 365.000000,1.000000 547.000000,1.000000 
	C547.000000,31.666666 547.000000,62.333332 547.000000,93.000000 
	C500.166656,93.000000 453.333344,93.000000 406.000000,93.000000 
M528.353271,37.725998 
	C528.353271,37.725998 528.177063,37.309631 528.975586,37.280621 
	C529.934753,36.937641 530.893982,36.594662 531.853149,36.251682 
	C531.741577,35.953251 531.630005,35.654823 531.518433,35.356392 
	C525.704834,35.356392 519.891235,35.356392 514.077637,35.356392 
	C514.039368,35.730213 514.001160,36.104031 513.962952,36.477852 
	C514.919128,36.755096 515.875366,37.032341 516.943909,37.911133 
	C517.098816,38.043842 517.253723,38.176556 517.329529,39.201828 
	C517.222473,42.980785 516.983398,46.761658 517.038147,50.538265 
	C517.128662,56.785587 514.726929,62.064079 511.185486,67.534447 
	C511.130127,67.729446 511.074768,67.924438 510.285553,68.173676 
	C509.268524,69.372719 508.251465,70.571754 507.234406,71.770790 
	C508.602417,72.471199 509.955688,73.741463 511.340912,73.777344 
	C518.985718,73.975357 526.642456,74.000824 534.284729,73.758217 
	C535.723694,73.712532 537.115723,72.186783 538.529419,71.343994 
	C537.347412,70.278786 536.165405,69.213585 534.699646,67.540703 
	C534.726990,67.318817 534.754272,67.096939 534.976685,66.169754 
	C533.938110,65.179527 532.190979,64.322968 531.974915,63.177597 
	C530.460938,55.151157 529.263000,47.065105 528.132385,38.506187 
	C528.087219,38.338852 528.042053,38.171520 528.353271,37.725998 
M276.247620,30.107046 
	C275.074493,31.962957 273.901367,33.818867 272.345490,36.280334 
	C274.677094,35.641685 275.982574,35.284107 276.935242,35.693069 
	C274.564789,39.339554 274.524231,43.213280 277.560699,46.147526 
	C280.130280,48.630558 283.545593,51.594337 286.729706,51.771343 
	C291.648346,52.044769 296.689117,50.122185 302.027924,49.061447 
	C303.245148,42.556248 298.487732,39.270470 294.760345,34.661018 
	C296.648834,35.616993 298.579529,36.499233 300.414215,37.549210 
	C302.334259,38.648041 304.162079,39.908073 306.729431,41.688869 
	C306.027832,44.215813 305.326233,46.742752 304.659302,49.144852 
	C307.107391,49.912560 308.591492,50.377964 310.176056,52.055908 
	C300.809113,53.108814 291.442169,54.161720 282.154510,55.205711 
	C282.154510,57.851273 282.154510,59.094440 282.154510,60.519711 
	C295.784149,54.622959 309.253693,54.738899 324.044708,60.649704 
	C322.869080,58.619324 322.583496,57.348701 321.870850,57.028492 
	C318.600861,55.559189 315.174530,54.439709 311.891907,52.995510 
	C311.105988,52.649746 310.655945,51.540550 310.921051,50.233280 
	C315.538116,50.239700 319.948792,54.652691 325.559357,50.937649 
	C327.326050,51.157768 329.092743,51.377884 330.732605,51.582203 
	C332.198456,49.166428 333.504028,47.014835 335.075470,44.425041 
	C332.921448,45.077915 331.440277,45.526848 330.230621,45.169815 
	C330.608215,42.489708 330.985809,39.809597 332.115662,37.075897 
	C333.296051,37.075897 334.476440,37.075897 337.088135,37.075897 
	C334.095062,34.548492 332.101227,32.864872 329.624573,30.773561 
	C329.298096,32.408180 329.115631,33.321777 328.371918,34.070389 
	C327.904877,33.737034 327.437866,33.403675 327.030060,32.383045 
	C327.353333,31.186953 327.676605,29.990858 328.064697,28.554876 
	C326.787750,28.743509 325.977539,28.863195 324.763000,28.220448 
	C320.274902,28.654770 315.786804,29.089090 311.894867,29.465719 
	C309.598785,25.550840 307.022644,21.158422 304.361908,16.621788 
	C306.930542,15.868596 308.370392,15.446399 310.203003,14.909042 
	C307.546692,12.939516 305.492310,11.416294 303.619354,10.027589 
	C301.923004,11.326118 299.883392,12.887432 297.334198,14.838788 
	C299.101318,15.422020 300.517212,15.889328 302.650726,16.593494 
	C300.087830,21.546883 297.567169,26.418617 294.412323,30.873386 
	C288.748260,27.411467 282.980713,25.965221 276.247620,30.107046 
M12.853723,69.278008 
	C12.853723,69.278008 12.918876,69.743401 12.177732,69.857430 
	C11.245870,70.922852 10.314009,71.988266 9.382146,73.053688 
	C10.534006,73.764771 11.671389,75.062889 12.840075,75.091705 
	C20.439743,75.279114 28.051332,75.340340 35.646606,75.080353 
	C37.397541,75.020416 39.100204,73.550407 40.825081,72.729294 
	C39.522789,71.548134 38.220493,70.366966 37.032692,68.405281 
	C36.031910,67.554970 35.031124,66.704666 34.217201,65.370674 
	C34.115723,65.230759 34.014240,65.090851 33.829227,64.215866 
	C32.709515,56.270084 31.589800,48.324303 30.544273,39.660191 
	C28.688641,38.773121 26.833010,37.886051 25.051764,36.225769 
	C25.454794,35.839066 25.800201,35.216595 26.269699,35.101849 
	C31.404510,33.846905 34.153809,30.881832 33.935600,26.362076 
	C33.719078,21.877344 31.309494,18.929686 26.922062,17.928600 
	C22.549623,16.930929 18.504972,19.156500 16.855160,23.177023 
	C15.108047,27.434658 16.516043,31.375013 20.677057,34.306118 
	C21.624613,34.973598 22.295761,36.033466 22.723921,37.549839 
	C21.656576,38.495377 20.589231,39.440914 19.490126,41.270733 
	C18.355713,49.164814 17.221300,57.058891 15.763862,65.354713 
	C15.829632,65.513466 15.895403,65.672218 15.285733,66.085030 
	C14.552698,67.013306 13.819663,67.941582 12.853723,69.278008 
M256.163574,59.975834 
	C256.163574,59.975834 256.091949,59.684513 256.086792,59.286797 
	C256.086792,59.286797 256.029999,58.893120 256.740265,59.294346 
	C261.742401,56.431404 263.362030,51.755165 263.858551,46.366821 
	C264.361633,40.907940 265.072845,35.468239 265.982147,29.350237 
	C266.422913,28.927250 267.068146,28.583149 267.267303,28.066944 
	C267.949280,26.299459 268.474640,24.471560 269.059723,22.666700 
	C267.724335,22.361553 265.498932,21.449047 265.216705,21.862619 
	C264.287781,23.223825 263.896942,25.039164 263.628632,26.732239 
	C263.463531,27.774052 263.898743,28.910997 263.635712,30.565742 
	C260.695404,36.532917 257.755127,42.500092 254.169907,49.776100 
	C253.705688,41.068138 253.193130,33.957272 253.044479,26.838804 
	C253.008987,25.139038 254.402130,23.455355 254.743423,21.688040 
	C255.044846,20.127089 255.359802,18.068789 254.599030,16.972219 
	C254.059906,16.195143 251.264175,16.036034 250.348373,16.738602 
	C249.460403,17.419809 249.464706,19.557934 249.495422,21.047588 
	C249.518982,22.188616 250.783264,23.508507 250.486069,24.419458 
	C248.032364,31.940605 245.342957,39.384850 242.229263,48.266228 
	C240.645645,39.133686 239.196075,31.490543 238.085846,23.798416 
	C237.849121,22.158339 239.069397,20.357864 239.208740,18.598835 
	C239.334808,17.007452 239.390640,14.988115 238.534836,13.896433 
	C238.003601,13.218797 234.905960,13.377692 234.406693,14.126062 
	C233.659439,15.246160 233.998474,17.244278 234.244110,18.811155 
	C234.374161,19.640860 235.860992,20.445099 235.752197,21.096680 
	C234.325592,29.640348 232.723251,38.154678 231.164993,46.676365 
	C228.134674,40.195152 225.943085,33.778915 223.693298,27.383160 
	C222.897141,25.119860 221.586533,23.069757 223.776688,20.633059 
	C224.316544,20.032433 223.491974,17.156633 222.525391,16.547567 
	C221.570511,15.945879 219.023895,16.398115 218.313629,17.292145 
	C217.595764,18.195784 218.032043,20.274786 218.425446,21.712273 
	C218.689621,22.677620 220.400223,23.446960 220.369156,24.262281 
	C220.065979,32.218784 219.532043,40.166496 219.063797,48.116711 
	C218.778748,48.115269 218.493698,48.113827 218.208664,48.112385 
	C215.059586,41.744728 211.910507,35.377071 208.868866,28.227072 
	C209.265320,27.352585 210.140106,26.356836 209.955750,25.629593 
	C209.603546,24.240229 208.921494,22.633276 207.843948,21.838108 
	C207.160294,21.333611 204.569138,21.929096 204.472488,22.381456 
	C204.127975,23.993992 204.193542,25.850065 204.698959,27.422718 
	C204.953110,28.213535 206.488953,28.592445 207.455734,30.051420 
	C208.217896,35.919266 209.378204,41.770638 209.621826,47.659935 
	C209.833603,52.778923 212.398590,56.119026 215.957550,59.722290 
	C216.174240,60.198456 216.390915,60.674622 216.770264,61.908218 
	C216.800735,64.579224 216.831207,67.250221 216.926392,69.988319 
	C216.926392,69.988319 216.966003,69.905449 216.435028,69.985428 
	C216.339066,70.308281 216.243103,70.631142 215.631256,71.286697 
	C216.750885,72.192703 217.870499,73.098701 219.794235,74.076309 
	C231.209824,74.057236 242.625412,74.038162 254.712067,74.069748 
	C255.517471,73.053116 256.322876,72.036491 256.997467,70.569321 
	C256.969299,70.217957 256.790466,69.979652 256.274231,69.136131 
	C256.208099,66.821068 256.141998,64.506004 256.635742,61.747128 
	C256.401581,61.220768 256.167419,60.694408 256.163574,59.975834 
M88.485489,31.818903 
	C88.982719,31.191057 89.479950,30.563213 89.896988,29.025204 
	C89.896988,26.291027 89.896988,23.556852 89.896988,20.766161 
	C86.886017,20.766161 84.596222,20.766161 82.030174,20.766161 
	C81.688797,22.178532 81.366280,23.512911 81.064110,24.763062 
	C78.614204,24.763062 76.510139,24.763062 74.249619,24.763062 
	C74.057571,23.372364 73.885178,22.123934 73.714325,20.886744 
	C70.371460,20.886744 67.309509,20.886744 64.286224,20.886744 
	C63.991756,22.393234 63.749691,23.631628 63.519215,24.810717 
	C61.118774,24.810717 58.981972,24.810717 56.801308,24.810717 
	C56.389523,23.342943 56.010635,21.992445 55.665775,20.763226 
	C53.053223,20.763226 50.766430,20.763226 47.685856,20.763226 
	C48.109192,24.295294 48.506290,27.608433 49.654072,30.901707 
	C51.519810,32.947021 53.385548,34.992332 55.136333,37.963310 
	C55.317715,44.415230 55.499100,50.867149 55.763008,57.234692 
	C55.763008,57.234692 55.807423,57.098877 55.059185,57.163914 
	C53.358299,59.114758 51.657410,61.065605 49.460873,63.097195 
	C49.300091,63.375618 49.139309,63.654041 48.996723,64.808640 
	C48.996723,66.441727 48.996723,68.074814 48.996723,69.707901 
	C48.433735,69.520142 47.870750,69.332382 47.307762,69.144623 
	C46.521267,70.936478 45.734772,72.728340 44.744373,74.984741 
	C61.382874,74.984741 76.785599,74.984741 93.749718,74.984741 
	C91.974106,72.246536 90.817986,70.463676 89.661873,68.680809 
	C89.420067,68.839821 89.178261,68.998825 88.936455,69.157829 
	C88.936455,67.495049 88.936455,65.832260 88.822418,63.563194 
	C88.485680,63.349834 88.148941,63.136471 87.445366,62.426800 
	C85.999321,60.935867 84.553284,59.444935 83.002853,57.251286 
	C82.859657,56.802723 82.716461,56.354156 82.712761,54.991264 
	C82.666283,49.023689 82.619804,43.056118 82.874947,36.450741 
	C84.539169,34.952209 86.203392,33.453678 88.485489,31.818903 
M461.420349,61.237381 
	C461.018982,63.516193 460.617615,65.795006 459.454529,68.372688 
	C455.580383,68.315826 457.029724,71.028099 456.983459,73.568558 
	C457.322784,73.648926 457.662140,73.729294 458.930206,73.941986 
	C473.801056,73.941986 488.671875,73.941986 503.701813,73.941986 
	C503.785736,72.727341 503.890594,71.930489 503.881653,71.134911 
	C503.872894,70.354462 503.748383,69.575325 503.677429,68.824654 
	C502.259827,68.496216 501.151215,68.239365 500.123840,67.123009 
	C500.123840,65.512650 500.123840,63.902290 500.123840,61.992561 
	C499.201721,62.479324 498.823547,62.851597 498.441589,62.855549 
	C486.815704,62.975887 475.189209,63.104450 463.564026,63.032562 
	C462.909180,63.028511 462.264862,61.329140 462.172546,61.071953 
	C462.448273,61.048481 462.724030,61.025013 463.915558,61.216820 
	C475.254456,61.216820 486.593353,61.216820 497.932220,61.216820 
	C492.292633,56.504101 494.033936,50.504528 494.107452,45.104977 
	C494.178894,39.859947 491.735413,33.680771 499.555023,30.319344 
	C486.333832,30.319344 474.284607,30.319344 461.772247,30.319344 
	C468.235565,35.873573 468.656525,53.198055 462.486206,60.028942 
	C462.261353,60.286625 461.979645,60.440060 461.420349,61.237381 
M113.985191,60.804134 
	C116.200783,61.795868 118.416367,62.787605 121.204727,64.035728 
	C113.696770,69.975510 102.547974,63.152260 96.288261,71.484077 
	C97.296555,72.756035 98.389801,74.135162 99.058456,74.978676 
	C115.734245,68.984421 131.452698,68.959709 147.459427,74.993637 
	C148.413620,73.949509 149.490005,72.771645 150.449097,71.722153 
	C144.030228,63.081970 132.816315,70.114914 125.171318,63.667183 
	C127.940529,62.890961 130.146164,62.637951 131.941162,61.643627 
	C133.177429,60.958820 133.844742,59.246918 134.783722,57.217747 
	C134.981735,55.012581 134.361191,52.136360 135.521957,50.720463 
	C140.114624,45.118301 140.372498,39.403320 135.016663,34.454243 
	C131.630356,31.325117 127.686798,28.799051 124.166389,25.336643 
	C124.781509,24.804718 125.925049,24.260635 125.913139,23.743143 
	C125.876732,22.161097 125.762146,20.333025 124.920654,19.130699 
	C124.547180,18.597075 121.468239,18.934845 121.177017,19.580528 
	C120.587494,20.887573 120.903397,22.702293 121.174431,24.250185 
	C121.285629,24.885233 122.246605,25.371485 122.203590,26.181673 
	C118.542534,29.033594 114.654282,31.642319 111.276680,34.797661 
	C106.837151,38.945038 106.264885,45.663677 110.361366,49.503777 
	C113.131134,52.100197 113.072624,54.303093 111.939224,57.279724 
	C111.788033,57.676804 112.621277,58.448730 113.300339,59.473930 
	C113.587006,59.664314 113.873680,59.854702 113.985191,60.804134 
M360.632446,60.156471 
	C362.684814,60.860790 364.737213,61.565105 367.565186,62.535583 
	C359.282776,67.749016 348.741669,62.007332 342.065918,70.180977 
	C343.137085,71.499908 344.225952,72.840584 344.808777,73.558228 
	C361.593689,67.497200 377.176056,67.599861 393.350433,73.377960 
	C394.176788,72.505379 395.348450,71.268196 396.368286,70.191330 
	C389.623871,61.911076 379.038696,67.945915 371.638214,62.844101 
	C374.059052,61.392948 376.064392,60.190880 378.766388,59.022461 
	C379.697937,58.669552 380.629456,58.316643 381.561005,57.963749 
	C381.085419,57.649918 380.609833,57.336082 380.089783,56.146111 
	C380.546661,53.763962 380.255554,50.779865 381.598694,49.110973 
	C385.866119,43.808437 386.224884,37.914749 381.218109,33.231003 
	C377.876434,30.104931 373.903015,27.654213 370.235229,24.229502 
	C370.552460,23.857784 371.095459,23.515060 371.147583,23.109301 
	C371.365417,21.412991 371.435852,19.697754 371.560333,17.989456 
	C370.082001,17.925104 368.603699,17.860752 367.125366,17.796400 
	C367.164124,19.527805 367.129150,21.265560 367.277557,22.987514 
	C367.337708,23.685936 367.797241,24.349941 367.422638,25.231833 
	C364.019318,27.889574 360.406036,30.322733 357.264374,33.260311 
	C353.069855,37.182308 352.062836,43.592075 355.720367,47.141331 
	C359.152466,50.471828 358.943817,53.474045 357.023743,57.608086 
	C357.986542,58.418503 358.949341,59.228920 360.632446,60.156471 
M191.414734,53.585743 
	C187.260727,48.244152 183.106720,42.902557 178.864197,37.447147 
	C181.632843,37.049278 184.174759,36.414566 186.518799,39.586365 
	C187.292435,40.633186 191.670135,40.549088 192.816040,39.401089 
	C194.255066,37.959454 195.318497,33.795502 194.369186,32.712204 
	C189.535614,27.196394 183.999451,22.296276 178.064987,16.557621 
	C178.064987,15.806337 178.064987,14.052502 178.064987,11.715290 
	C175.695267,13.492182 173.934952,15.217112 171.837372,16.270441 
	C169.762314,17.312468 167.011932,17.174328 165.137909,18.423885 
	C156.487717,24.191620 152.663879,39.494591 157.280762,49.110157 
	C157.606033,49.787590 158.694534,50.098553 160.368179,51.196774 
	C159.951157,48.125874 159.625809,46.062263 159.397064,43.987995 
	C158.430359,35.221611 159.433884,26.986797 166.378372,20.641018 
	C167.382278,19.723661 169.139740,19.630945 170.548477,19.156620 
	C170.750473,19.638041 170.952469,20.119463 171.154465,20.600883 
	C162.575562,26.862970 161.144150,35.467449 162.824036,45.086857 
	C163.777893,50.548916 164.744720,56.008709 165.724823,61.578121 
	C174.095734,61.578121 182.811478,61.578121 191.722626,61.578121 
	C191.722626,58.935242 191.722626,56.638027 191.414734,53.585743 
M441.641846,43.897606 
	C442.938843,34.228199 442.056763,25.261139 433.450378,18.270098 
	C435.225891,18.035393 436.851807,18.130968 437.837830,18.974535 
	C442.498840,22.962038 444.784485,28.234058 445.026123,34.293812 
	C445.219879,39.152271 445.065277,44.024620 445.065277,50.013161 
	C446.191406,48.175812 447.404083,47.049438 447.554321,45.795727 
	C448.046600,41.688438 448.575317,37.508327 448.317871,33.404655 
	C447.802277,25.186285 443.976105,18.371866 436.276276,15.369108 
	C433.005432,14.093539 429.737518,13.299403 427.106293,10.856410 
	C426.977081,10.736416 426.525360,10.963778 426.650482,10.936550 
	C425.977997,13.078627 425.921906,15.535021 424.667877,16.842548 
	C420.152832,21.550322 415.272583,25.913050 410.453186,30.321829 
	C407.416595,33.099720 409.159790,36.015217 411.139954,37.531666 
	C412.725586,38.745972 417.012024,39.136902 417.881348,38.075783 
	C420.475433,34.909321 422.984863,35.833141 426.423035,36.324127 
	C419.540741,43.323906 410.779236,48.595901 412.883240,60.026123 
	C421.958435,60.026123 430.723572,60.026123 438.573242,60.026123 
	C439.573822,54.642612 440.493195,49.696060 441.641846,43.897606 
M440.156708,73.872177 
	C442.229370,73.425758 445.636963,75.367516 445.481079,70.926331 
	C445.386780,68.240059 440.697144,63.778381 437.931152,63.770172 
	C430.458893,63.747993 422.986420,63.738087 415.514221,63.770351 
	C410.643677,63.791386 407.347778,68.353401 408.499329,73.872147 
	C418.687500,73.872147 428.957794,73.872147 440.156708,73.872177 
M174.532639,65.107864 
	C172.200058,65.107895 169.867462,65.102226 167.534897,65.109123 
	C162.199265,65.124893 158.688614,69.281395 159.434006,74.865707 
	C171.679840,74.865707 183.944626,74.865707 196.172379,74.865707 
	C196.941238,69.760971 193.214935,65.134369 188.516479,65.112267 
	C184.184631,65.091888 179.852615,65.107872 174.532639,65.107864 
M501.165955,20.614475 
	C498.643219,19.859848 496.120483,19.105223 493.337677,18.272795 
	C492.986603,20.544521 492.795013,21.784286 492.590698,23.106524 
	C490.215759,23.106524 488.095306,23.106524 485.810272,23.106524 
	C485.447418,21.660053 485.116119,20.339312 484.839661,19.237261 
	C481.439667,19.237261 478.501190,19.237261 475.475189,19.237261 
	C475.205505,20.679237 474.976471,21.903954 474.740173,23.167477 
	C472.478638,23.167477 470.513733,23.167477 468.321838,23.167477 
	C467.976349,21.781807 467.641357,20.438351 467.341522,19.235737 
	C464.584991,19.235737 462.143951,19.235737 459.487427,19.235737 
	C459.487427,22.408041 459.487427,25.343157 459.487427,28.224201 
	C473.306488,28.224201 487.044556,28.224201 501.176392,28.224201 
	C501.176392,26.151274 501.176392,23.849188 501.165955,20.614475 
M288.211182,67.599274 
	C286.792450,68.207108 285.373688,68.814941 283.745087,69.512695 
	C293.496155,76.076073 313.219269,75.978683 321.344360,69.575279 
	C312.990997,64.899910 301.894135,64.112648 288.211182,67.599274 
M519.605164,33.288658 
	C523.294861,35.591648 526.730042,34.043121 528.836487,31.354721 
	C530.540710,29.179581 531.570007,25.681074 531.291626,22.932341 
	C530.869019,18.759445 527.518860,16.402418 523.292236,16.149733 
	C518.994507,15.892793 515.886963,18.197218 514.494263,22.096529 
	C512.822571,26.776770 514.651489,30.469967 519.605164,33.288658 
M282.507751,67.016792 
	C296.104706,60.906086 309.756653,61.500175 323.899750,66.346550 
	C323.292114,64.755295 322.440552,63.268452 321.179504,62.715603 
	C309.042450,57.394535 296.895996,57.614113 284.535919,62.363602 
	C281.945526,63.358994 281.719818,64.383499 282.507751,67.016792 
M274.292908,47.459862 
	C273.602417,45.761250 272.911926,44.062637 272.221436,42.364021 
	C271.699066,42.695007 271.176697,43.025997 270.654358,43.356983 
	C271.662415,44.669891 272.670502,45.982800 274.292908,47.459862 
M334.729309,39.242527 
	C334.635040,39.948093 334.540802,40.653660 334.446533,41.359230 
	C335.042450,41.153522 335.638336,40.947815 336.234253,40.742107 
	C335.938599,40.204746 335.642944,39.667389 334.729309,39.242527 
M280.202606,54.359821 
	C280.736908,54.580341 281.271210,54.800861 281.805542,55.021381 
	C281.982086,54.721157 282.158630,54.420937 282.335175,54.120716 
	C281.200256,53.542896 280.065338,52.965076 278.930420,52.387257 
	C278.930420,52.513474 278.930420,52.639687 278.930420,52.783176 
	C279.235657,53.126450 279.556183,53.486897 280.202606,54.359821 
M276.761932,51.095165 
	C276.426117,50.567814 276.090271,50.040466 275.754456,49.513119 
	C275.545685,49.668739 275.336914,49.824364 275.128174,49.979988 
	C275.540070,50.464291 275.951965,50.948597 276.761932,51.095165 
M326.029602,53.496471 
	C326.158112,53.740589 326.286621,53.984711 326.415161,54.228817 
	C326.584991,53.913700 326.754822,53.598583 326.924683,53.283474 
	C326.655090,53.188694 326.385498,53.093910 326.029602,53.496471 
M271.537079,37.593204 
	C271.478394,37.823826 271.419739,38.054451 271.361084,38.285084 
	C271.507233,38.135559 271.653381,37.986034 271.537079,37.593204 
M323.759796,54.223179 
	C323.819977,54.402809 323.880127,54.582436 323.940308,54.762062 
	C323.998718,54.579697 324.057129,54.397335 323.759796,54.223179 
z"/>
<path fill="#090909" opacity="1.000000" stroke="none" 
	d="
M215.929398,59.167294 
	C212.398590,56.119026 209.833603,52.778923 209.621826,47.659935 
	C209.378204,41.770638 208.217896,35.919266 207.779953,29.571354 
	C208.323257,29.063995 208.542343,29.036705 208.761429,29.009415 
	C211.910507,35.377071 215.059586,41.744728 218.208664,48.112385 
	C218.493698,48.113827 218.778748,48.115269 219.063797,48.116711 
	C219.532043,40.166496 220.065979,32.218784 220.369156,24.262281 
	C220.400223,23.446960 218.689621,22.677620 218.425446,21.712273 
	C218.032043,20.274786 217.595764,18.195784 218.313629,17.292145 
	C219.023895,16.398115 221.570511,15.945879 222.525391,16.547567 
	C223.491974,17.156633 224.316544,20.032433 223.776688,20.633059 
	C221.586533,23.069757 222.897141,25.119860 223.693298,27.383160 
	C225.943085,33.778915 228.134674,40.195152 231.164993,46.676365 
	C232.723251,38.154678 234.325592,29.640348 235.752197,21.096680 
	C235.860992,20.445099 234.374161,19.640860 234.244110,18.811155 
	C233.998474,17.244278 233.659439,15.246160 234.406693,14.126062 
	C234.905960,13.377692 238.003601,13.218797 238.534836,13.896433 
	C239.390640,14.988115 239.334808,17.007452 239.208740,18.598835 
	C239.069397,20.357864 237.849121,22.158339 238.085846,23.798416 
	C239.196075,31.490543 240.645645,39.133686 242.229263,48.266228 
	C245.342957,39.384850 248.032364,31.940605 250.486069,24.419458 
	C250.783264,23.508507 249.518982,22.188616 249.495422,21.047588 
	C249.464706,19.557934 249.460403,17.419809 250.348373,16.738602 
	C251.264175,16.036034 254.059906,16.195143 254.599030,16.972219 
	C255.359802,18.068789 255.044846,20.127089 254.743423,21.688040 
	C254.402130,23.455355 253.008987,25.139038 253.044479,26.838804 
	C253.193130,33.957272 253.705688,41.068138 254.169907,49.776100 
	C257.755127,42.500092 260.695404,36.532917 264.121582,30.289101 
	C264.969238,30.015018 265.331085,30.017578 265.692871,30.020138 
	C265.072845,35.468239 264.361633,40.907940 263.858551,46.366821 
	C263.362030,51.755165 261.742401,56.431404 256.241760,58.756615 
	C244.010040,53.544807 232.125961,53.455425 219.767822,57.062824 
	C218.253052,57.774933 217.091217,58.471111 215.929398,59.167294 
z"/>
<path fill="#060606" opacity="1.000000" stroke="none" 
	d="
M191.568680,53.963280 
	C191.722626,56.638027 191.722626,58.935242 191.722626,61.578121 
	C182.811478,61.578121 174.095734,61.578121 165.724823,61.578121 
	C164.744720,56.008709 163.777893,50.548916 162.824036,45.086857 
	C161.144150,35.467449 162.575562,26.862970 171.154465,20.600883 
	C170.952469,20.119463 170.750473,19.638041 170.548477,19.156620 
	C169.139740,19.630945 167.382278,19.723661 166.378372,20.641018 
	C159.433884,26.986797 158.430359,35.221611 159.397064,43.987995 
	C159.625809,46.062263 159.951157,48.125874 160.368179,51.196774 
	C158.694534,50.098553 157.606033,49.787590 157.280762,49.110157 
	C152.663879,39.494591 156.487717,24.191620 165.137909,18.423885 
	C167.011932,17.174328 169.762314,17.312468 171.837372,16.270441 
	C173.934952,15.217112 175.695267,13.492182 178.064987,11.715290 
	C178.064987,14.052502 178.064987,15.806337 178.064987,16.557621 
	C183.999451,22.296276 189.535614,27.196394 194.369186,32.712204 
	C195.318497,33.795502 194.255066,37.959454 192.816040,39.401089 
	C191.670135,40.549088 187.292435,40.633186 186.518799,39.586365 
	C184.174759,36.414566 181.632843,37.049278 178.864197,37.447147 
	C183.106720,42.902557 187.260727,48.244152 191.568680,53.963280 
z"/>
<path fill="#050505" opacity="1.000000" stroke="none" 
	d="
M441.527191,44.323555 
	C440.493195,49.696060 439.573822,54.642612 438.573242,60.026123 
	C430.723572,60.026123 421.958435,60.026123 412.883240,60.026123 
	C410.779236,48.595901 419.540741,43.323906 426.423035,36.324127 
	C422.984863,35.833141 420.475433,34.909321 417.881348,38.075783 
	C417.012024,39.136902 412.725586,38.745972 411.139954,37.531666 
	C409.159790,36.015217 407.416595,33.099720 410.453186,30.321829 
	C415.272583,25.913050 420.152832,21.550322 424.667877,16.842548 
	C425.921906,15.535021 425.977997,13.078627 426.650482,10.936550 
	C426.525360,10.963778 426.977081,10.736416 427.106293,10.856410 
	C429.737518,13.299403 433.005432,14.093539 436.276276,15.369108 
	C443.976105,18.371866 447.802277,25.186285 448.317871,33.404655 
	C448.575317,37.508327 448.046600,41.688438 447.554321,45.795727 
	C447.404083,47.049438 446.191406,48.175812 445.065277,50.013161 
	C445.065277,44.024620 445.219879,39.152271 445.026123,34.293812 
	C444.784485,28.234058 442.498840,22.962038 437.837830,18.974535 
	C436.851807,18.130968 435.225891,18.035393 433.450378,18.270098 
	C442.056763,25.261139 442.938843,34.228199 441.527191,44.323555 
z"/>
<path fill="#060606" opacity="1.000000" stroke="none" 
	d="
M462.954773,59.904682 
	C468.656525,53.198055 468.235565,35.873573 461.772247,30.319344 
	C474.284607,30.319344 486.333832,30.319344 499.555023,30.319344 
	C491.735413,33.680771 494.178894,39.859947 494.107452,45.104977 
	C494.033936,50.504528 492.292633,56.504101 497.932220,61.216820 
	C486.593353,61.216820 475.254456,61.216820 463.462067,60.834324 
	C462.990662,60.269447 462.972717,60.087067 462.954773,59.904682 
M484.426697,54.828587 
	C478.928040,54.828587 473.429413,54.828587 467.930756,54.828587 
	C467.966095,55.349224 468.001434,55.869858 468.036804,56.390495 
	C476.285645,56.390495 484.534515,56.390495 492.783356,56.390495 
	C492.801361,55.869858 492.819397,55.349224 492.837402,54.828587 
	C490.357147,54.828587 487.876862,54.828587 484.426697,54.828587 
M486.340759,33.072159 
	C480.185516,33.084267 474.030243,33.096375 467.875000,33.108479 
	C467.920227,33.637058 467.965454,34.165634 468.010681,34.694214 
	C476.258698,34.694214 484.506714,34.694214 492.754730,34.694214 
	C492.772461,34.254467 492.790222,33.814720 492.807953,33.374973 
	C490.968750,33.274036 489.129547,33.173100 486.340759,33.072159 
z"/>
<path fill="#070707" opacity="1.000000" stroke="none" 
	d="
M112.998634,59.047066 
	C112.621277,58.448730 111.788033,57.676804 111.939224,57.279724 
	C113.072624,54.303093 113.131134,52.100197 110.361366,49.503777 
	C106.264885,45.663677 106.837151,38.945038 111.276680,34.797661 
	C114.654282,31.642319 118.542534,29.033594 122.804222,26.089924 
	C123.600967,25.999617 123.797073,26.001057 123.993179,26.002495 
	C127.686798,28.799051 131.630356,31.325117 135.016663,34.454243 
	C140.372498,39.403320 140.114624,45.118301 135.521957,50.720463 
	C134.361191,52.136360 134.981735,55.012581 134.461029,57.607197 
	C133.720032,58.012955 133.301712,58.029266 132.506897,57.972580 
	C125.539314,54.716938 119.140137,54.733944 112.998634,59.047066 
M123.581879,51.069771 
	C126.228142,51.471001 128.874405,51.872227 132.232361,52.381367 
	C126.811424,47.710419 119.199226,47.787922 114.778709,52.437252 
	C117.746048,51.928127 120.245461,51.499287 123.581879,51.069771 
M120.606537,38.084946 
	C120.309967,38.792862 119.567444,39.880062 119.792336,40.144482 
	C120.895180,41.441189 122.255402,42.519005 123.310120,43.478893 
	C124.650116,42.075886 126.087914,40.570480 127.464409,39.129257 
	C126.191109,37.958076 124.694000,36.581039 122.960785,34.986828 
	C122.495140,35.899029 121.955353,36.956501 120.606537,38.084946 
z"/>
<path fill="#070707" opacity="1.000000" stroke="none" 
	d="
M357.441681,57.167767 
	C358.943817,53.474045 359.152466,50.471828 355.720367,47.141331 
	C352.062836,43.592075 353.069855,37.182308 357.264374,33.260311 
	C360.406036,30.322733 364.019318,27.889574 368.106201,25.137205 
	C369.263947,24.995470 369.738129,24.948362 370.212311,24.901253 
	C373.903015,27.654213 377.876434,30.104931 381.218109,33.231003 
	C386.224884,37.914749 385.866119,43.808437 381.598694,49.110973 
	C380.255554,50.779865 380.546661,53.763962 379.724701,56.610180 
	C373.449829,53.641697 367.403076,52.945591 361.100189,56.031101 
	C359.966797,56.585922 358.665466,56.797634 357.441681,57.167767 
M369.463684,47.357029 
	C366.549072,48.020039 363.634491,48.683044 360.719879,49.346050 
	C360.844482,49.693855 360.969055,50.041656 361.093628,50.389458 
	C366.555634,50.389458 372.017670,50.389458 377.479675,50.389458 
	C377.591339,50.025616 377.703033,49.661777 377.814697,49.297935 
	C375.303223,48.656330 372.791748,48.014725 369.463684,47.357029 
M370.466278,35.144829 
	C369.767517,34.829937 368.660828,34.069862 368.437836,34.274185 
	C367.214508,35.395145 366.207703,36.752411 365.126556,38.028538 
	C365.849609,37.235031 366.572693,36.441528 367.295776,35.648022 
	C368.611481,37.137047 369.927185,38.626072 371.242889,40.115101 
	C369.379700,39.582798 367.516479,39.050499 365.653290,38.518200 
	C367.685577,37.701546 369.717865,36.884892 371.750153,36.068241 
	C372.405548,36.581398 373.060913,37.094559 373.716309,37.607719 
	C372.684326,37.027435 371.652374,36.447147 370.466278,35.144829 
z"/>
<path fill="#000000" opacity="1.000000" stroke="none" 
	d="
M82.573326,37.088543 
	C82.619804,43.056118 82.666283,49.023689 82.352295,55.426132 
	C81.611053,55.937809 81.230278,56.014614 80.390656,56.072250 
	C74.185715,56.051071 68.435928,55.928913 62.695320,56.105244 
	C60.346828,56.177383 58.018166,56.895069 55.680481,57.319069 
	C55.499100,50.867149 55.317715,44.415230 55.516888,37.459644 
	C56.088421,36.852749 56.279404,36.749516 56.895126,36.761086 
	C65.170067,36.891121 73.020279,36.906361 81.149902,36.999008 
	C81.810654,37.080460 82.191986,37.084503 82.573326,37.088543 
z"/>
<path fill="#050505" opacity="1.000000" stroke="none" 
	d="
M324.742828,50.880657 
	C319.948792,54.652691 315.538116,50.239700 310.473511,50.545036 
	C310.026001,50.856796 310.075592,50.843369 310.075592,50.843369 
	C308.591492,50.377964 307.107391,49.912560 304.659302,49.144852 
	C305.326233,46.742752 306.027832,44.215813 306.373596,41.372650 
	C306.017731,41.056427 306.038971,41.026417 306.332153,41.293827 
	C308.266327,39.714771 309.907349,37.868305 311.665161,35.981236 
	C311.781891,35.940632 312.033539,35.530865 312.430420,35.653027 
	C314.434021,34.969452 316.129120,34.293831 317.603088,33.292622 
	C318.176117,32.903362 318.250092,31.779377 318.699036,31.067032 
	C318.846710,31.143993 319.179382,31.163107 319.179382,31.163107 
	C319.179382,31.163107 319.491180,31.045630 319.259888,31.478888 
	C321.009308,32.149342 322.990082,32.386536 325.282410,32.778687 
	C326.052917,32.979198 326.511871,33.024757 326.970825,33.070316 
	C327.437866,33.403675 327.904877,33.737034 328.744690,34.412315 
	C329.866089,35.545986 330.614746,36.337738 331.363403,37.129486 
	C330.985809,39.809597 330.608215,42.489708 329.838684,45.687576 
	C327.878784,47.763775 326.310822,49.322216 324.742828,50.880657 
z"/>
<path fill="#050505" opacity="1.000000" stroke="none" 
	d="
M294.126434,35.763138 
	C298.487732,39.270470 303.245148,42.556248 302.027924,49.061447 
	C296.689117,50.122185 291.648346,52.044769 286.729706,51.771343 
	C283.545593,51.594337 280.130280,48.630558 277.560699,46.147526 
	C274.524231,43.213280 274.564789,39.339554 277.361694,35.239334 
	C278.857422,34.103065 279.926636,33.420525 281.445801,32.744331 
	C285.920563,33.679157 289.945435,34.607639 293.990417,35.598625 
	C294.010559,35.661129 294.126434,35.763138 294.126434,35.763138 
z"/>
<path fill="#000000" opacity="1.000000" stroke="none" 
	d="
M511.102570,66.932022 
	C514.726929,62.064079 517.128662,56.785587 517.038147,50.538265 
	C516.983398,46.761658 517.222473,42.980785 517.798218,38.739182 
	C521.192444,38.301941 524.117981,38.327354 527.162476,38.504517 
	C527.476135,38.835812 527.703613,38.949760 527.963989,38.998119 
	C529.263000,47.065105 530.460938,55.151157 531.974915,63.177597 
	C532.190979,64.322968 533.938110,65.179527 534.424377,66.517410 
	C526.282227,66.887383 518.692383,66.909706 511.102570,66.932022 
z"/>
<path fill="#101010" opacity="1.000000" stroke="none" 
	d="
M378.069702,58.988808 
	C376.064392,60.190880 374.059052,61.392948 371.638214,62.844101 
	C379.038696,67.945915 389.623871,61.911076 396.368286,70.191330 
	C395.348450,71.268196 394.176788,72.505379 393.350433,73.377960 
	C377.176056,67.599861 361.593689,67.497200 344.808777,73.558228 
	C344.225952,72.840584 343.137085,71.499908 342.065918,70.180977 
	C348.741669,62.007332 359.282776,67.749016 367.565186,62.535583 
	C364.737213,61.565105 362.684814,60.860790 360.285095,59.720543 
	C365.919708,55.386082 371.961548,55.154018 378.069702,58.988808 
z"/>
<path fill="#0C0C0C" opacity="1.000000" stroke="none" 
	d="
M132.883392,58.045570 
	C133.301712,58.029266 133.720032,58.012955 134.452332,57.995354 
	C133.844742,59.246918 133.177429,60.958820 131.941162,61.643627 
	C130.146164,62.637951 127.940529,62.890961 125.171318,63.667183 
	C132.816315,70.114914 144.030228,63.081970 150.449097,71.722153 
	C149.490005,72.771645 148.413620,73.949509 147.459427,74.993637 
	C131.452698,68.959709 115.734245,68.984421 99.058456,74.978676 
	C98.389801,74.135162 97.296555,72.756035 96.288261,71.484077 
	C102.547974,63.152260 113.696770,69.975510 121.204727,64.035728 
	C118.416367,62.787605 116.200783,61.795868 114.452377,60.383003 
	C120.219055,57.363625 125.539139,56.934559 130.992599,59.593182 
	C131.298645,59.742374 132.238525,58.591396 132.883392,58.045570 
z"/>
<path fill="#070707" opacity="1.000000" stroke="none" 
	d="
M88.936455,64.169479 
	C88.936455,65.832260 88.936455,67.495049 88.936455,69.157829 
	C89.178261,68.998825 89.420067,68.839821 89.661873,68.680809 
	C90.817986,70.463676 91.974106,72.246536 93.749718,74.984741 
	C76.785599,74.984741 61.382874,74.984741 44.744373,74.984741 
	C45.734772,72.728340 46.521267,70.936478 47.307762,69.144623 
	C47.870750,69.332382 48.433735,69.520142 48.996723,69.707901 
	C48.996723,68.074814 48.996723,66.441727 49.416954,64.376358 
	C52.865047,64.280983 55.896355,64.930748 58.920155,64.897522 
	C68.927048,64.787567 78.931229,64.431259 88.936455,64.169479 
M81.321548,68.914459 
	C75.991974,68.912209 70.662399,68.909134 65.332825,68.907959 
	C60.295998,68.906845 55.259167,68.907715 50.222340,68.907715 
	C50.259411,69.539368 50.296482,70.171028 50.333557,70.802681 
	C62.782928,71.187286 75.221512,71.067055 87.659660,70.926079 
	C87.652786,70.256615 87.645920,69.587151 87.639046,68.917686 
	C85.846916,68.917686 84.054779,68.917686 81.321548,68.914459 
z"/>
<path fill="#070707" opacity="1.000000" stroke="none" 
	d="
M439.692383,73.872162 
	C428.957794,73.872147 418.687500,73.872147 408.499329,73.872147 
	C407.347778,68.353401 410.643677,63.791386 415.514221,63.770351 
	C422.986420,63.738087 430.458893,63.747993 437.931152,63.770172 
	C440.697144,63.778381 445.386780,68.240059 445.481079,70.926331 
	C445.636963,75.367516 442.229370,73.425758 439.692383,73.872162 
z"/>
<path fill="#060606" opacity="1.000000" stroke="none" 
	d="
M175.026657,65.107849 
	C179.852615,65.107872 184.184631,65.091888 188.516479,65.112267 
	C193.214935,65.134369 196.941238,69.760971 196.172379,74.865707 
	C183.944626,74.865707 171.679840,74.865707 159.434006,74.865707 
	C158.688614,69.281395 162.199265,65.124893 167.534897,65.109123 
	C169.867462,65.102226 172.200058,65.107895 175.026657,65.107849 
z"/>
<path fill="#0B0B0B" opacity="1.000000" stroke="none" 
	d="
M294.443390,35.212078 
	C294.126434,35.763138 294.010559,35.661129 294.557709,35.705261 
	C295.077881,34.814312 295.050873,33.879230 295.032776,32.667984 
	C295.043274,32.024670 295.044922,31.657515 295.046570,31.290356 
	C297.567169,26.418617 300.087830,21.546883 302.650726,16.593494 
	C300.517212,15.889328 299.101318,15.422020 297.334198,14.838788 
	C299.883392,12.887432 301.923004,11.326118 303.619354,10.027589 
	C305.492310,11.416294 307.546692,12.939516 310.203003,14.909042 
	C308.370392,15.446399 306.930542,15.868596 304.361908,16.621788 
	C307.022644,21.158422 309.598785,25.550840 311.894867,29.465719 
	C315.786804,29.089090 320.274902,28.654770 324.883026,28.819332 
	C325.003052,29.418219 324.963898,29.881857 324.528168,29.938675 
	C322.558685,30.345539 321.024933,30.695583 319.491180,31.045628 
	C319.491180,31.045630 319.179382,31.163107 319.179382,31.163107 
	C319.179382,31.163107 318.846710,31.143993 318.294006,30.865725 
	C315.823700,31.437429 313.851715,32.191929 312.037872,33.224243 
	C311.706238,33.412979 312.018494,34.733036 312.033539,35.530865 
	C312.033539,35.530865 311.781891,35.940632 311.461365,35.464996 
	C307.018005,36.148708 305.453308,38.000221 306.038971,41.026417 
	C306.038971,41.026417 306.017731,41.056427 306.023987,41.077034 
	C304.162079,39.908073 302.334259,38.648041 300.414215,37.549210 
	C298.579529,36.499233 296.648834,35.616993 294.443390,35.212078 
z"/>
<path fill="#171717" opacity="1.000000" stroke="none" 
	d="
M501.171173,21.080788 
	C501.176392,23.849188 501.176392,26.151274 501.176392,28.224201 
	C487.044556,28.224201 473.306488,28.224201 459.487427,28.224201 
	C459.487427,25.343157 459.487427,22.408041 459.487427,19.235737 
	C462.143951,19.235737 464.584991,19.235737 467.341522,19.235737 
	C467.641357,20.438351 467.976349,21.781807 468.321838,23.167477 
	C470.513733,23.167477 472.478638,23.167477 474.740173,23.167477 
	C474.976471,21.903954 475.205505,20.679237 475.475189,19.237261 
	C478.501190,19.237261 481.439667,19.237261 484.839661,19.237261 
	C485.116119,20.339312 485.447418,21.660053 485.810272,23.106524 
	C488.095306,23.106524 490.215759,23.106524 492.590698,23.106524 
	C492.795013,21.784286 492.986603,20.544521 493.337677,18.272795 
	C496.120483,19.105223 498.643219,19.859848 501.171173,21.080788 
z"/>
<path fill="#030303" opacity="1.000000" stroke="none" 
	d="
M30.470085,40.378521 
	C31.589800,48.324303 32.709515,56.270084 33.409752,64.616913 
	C27.355810,64.996307 21.721350,64.974640 16.086887,64.952972 
	C17.221300,57.058891 18.355713,49.164814 19.913010,40.716755 
	C23.713957,40.234692 27.092020,40.306606 30.470085,40.378521 
z"/>
<path fill="#090909" opacity="1.000000" stroke="none" 
	d="
M256.075897,62.190937 
	C256.141998,64.506004 256.208099,66.821068 255.893005,69.569031 
	C255.196350,70.056000 254.880920,70.110077 254.196075,70.129356 
	C242.297836,66.182449 230.784256,66.139549 219.254379,70.136688 
	C218.564606,70.375816 217.664124,70.007103 216.861679,69.921227 
	C216.831207,67.250221 216.800735,64.579224 217.011230,61.371521 
	C218.456863,60.238602 219.661530,59.642380 221.262711,58.986107 
	C225.525803,58.285706 229.428696,56.951485 233.251343,57.151424 
	C240.888153,57.550854 248.480972,58.791340 256.091949,59.684513 
	C256.091949,59.684513 256.163574,59.975834 256.067566,60.409439 
	C256.006317,61.292343 256.041107,61.741642 256.075897,62.190937 
M230.332657,63.513660 
	C238.150620,64.084793 245.968582,64.655930 253.101151,65.176987 
	C245.279526,58.918762 223.786194,59.264782 219.918106,66.563568 
	C223.262665,65.581604 226.382721,64.665558 230.332657,63.513660 
z"/>
<path fill="#030303" opacity="1.000000" stroke="none" 
	d="
M48.903389,30.921572 
	C48.506290,27.608433 48.109192,24.295294 47.685856,20.763226 
	C50.766430,20.763226 53.053223,20.763226 55.665775,20.763226 
	C56.010635,21.992445 56.389523,23.342943 56.801308,24.810717 
	C58.981972,24.810717 61.118774,24.810717 63.519215,24.810717 
	C63.749691,23.631628 63.991756,22.393234 64.286224,20.886744 
	C67.309509,20.886744 70.371460,20.886744 73.714325,20.886744 
	C73.885178,22.123934 74.057571,23.372364 74.249619,24.763062 
	C76.510139,24.763062 78.614204,24.763062 81.064110,24.763062 
	C81.366280,23.512911 81.688797,22.178532 82.030174,20.766161 
	C84.596222,20.766161 86.886017,20.766161 89.896988,20.766161 
	C89.896988,23.556852 89.896988,26.291027 89.516472,29.484367 
	C88.549545,29.656462 87.964478,29.121984 87.376534,29.118809 
	C75.290787,29.053530 63.204426,29.014910 51.119370,29.114565 
	C50.378433,29.120674 49.647293,30.315086 48.953613,30.940533 
	C48.995625,30.924461 48.903389,30.921572 48.903389,30.921572 
z"/>
<path fill="#0B0B0B" opacity="1.000000" stroke="none" 
	d="
M288.572693,67.437614 
	C301.894135,64.112648 312.990997,64.899910 321.344360,69.575279 
	C313.219269,75.978683 293.496155,76.076073 283.745087,69.512695 
	C285.373688,68.814941 286.792450,68.207108 288.572693,67.437614 
z"/>
<path fill="#060606" opacity="1.000000" stroke="none" 
	d="
M23.094131,36.912727 
	C22.295761,36.033466 21.624613,34.973598 20.677057,34.306118 
	C16.516043,31.375013 15.108047,27.434658 16.855160,23.177023 
	C18.504972,19.156500 22.549623,16.930929 26.922062,17.928600 
	C31.309494,18.929686 33.719078,21.877344 33.935600,26.362076 
	C34.153809,30.881832 31.404510,33.846905 26.269699,35.101849 
	C25.800201,35.216595 25.454794,35.839066 24.700323,36.603859 
	C23.930632,36.958878 23.512383,36.935802 23.094131,36.912727 
z"/>
<path fill="#070707" opacity="1.000000" stroke="none" 
	d="
M519.232056,33.149231 
	C514.651489,30.469967 512.822571,26.776770 514.494263,22.096529 
	C515.886963,18.197218 518.994507,15.892793 523.292236,16.149733 
	C527.518860,16.402418 530.869019,18.759445 531.291626,22.932341 
	C531.570007,25.681074 530.540710,29.179581 528.836487,31.354721 
	C526.730042,34.043121 523.294861,35.591648 519.232056,33.149231 
z"/>
<path fill="#0C0C0C" opacity="1.000000" stroke="none" 
	d="
M500.042603,67.982513 
	C501.151215,68.239365 502.259827,68.496216 503.677429,68.824654 
	C503.748383,69.575325 503.872894,70.354462 503.881653,71.134911 
	C503.890594,71.930489 503.785736,72.727341 503.701813,73.941986 
	C488.671875,73.941986 473.801056,73.941986 458.351837,73.693390 
	C457.575409,73.225418 457.334015,73.076027 457.049286,72.996628 
	C457.029724,71.028099 455.580383,68.315826 460.042664,68.261993 
	C460.920868,68.190987 461.193481,68.139153 461.561249,68.412811 
	C473.773804,69.014008 485.873749,69.211067 497.974457,69.324196 
	C498.363159,69.327843 498.759918,68.471710 499.375671,68.016144 
	C499.598419,68.015923 500.042603,67.982513 500.042603,67.982513 
z"/>
<path fill="#171717" opacity="1.000000" stroke="none" 
	d="
M282.249023,66.732849 
	C281.719818,64.383499 281.945526,63.358994 284.535919,62.363602 
	C296.895996,57.614113 309.042450,57.394535 321.179504,62.715603 
	C322.440552,63.268452 323.292114,64.755295 323.899750,66.346550 
	C309.756653,61.500175 296.104706,60.906086 282.249023,66.732849 
z"/>
<path fill="#202020" opacity="1.000000" stroke="none" 
	d="
M83.107239,57.953999 
	C84.553284,59.444935 85.999321,60.935867 87.174538,62.650101 
	C74.587982,62.921085 62.272251,62.968769 49.956524,63.016449 
	C51.657410,61.065605 53.358299,59.114758 55.795139,57.476402 
	C64.761116,57.883167 72.991135,57.977440 81.535812,58.055271 
	C82.269386,58.010551 82.688316,57.982277 83.107239,57.953999 
z"/>
<path fill="#171717" opacity="1.000000" stroke="none" 
	d="
M310.125824,51.449638 
	C310.075592,50.843369 310.026001,50.856796 310.038696,50.819633 
	C310.655945,51.540550 311.105988,52.649746 311.891907,52.995510 
	C315.174530,54.439709 318.600861,55.559189 321.870850,57.028492 
	C322.583496,57.348701 322.869080,58.619324 324.044708,60.649704 
	C309.253693,54.738899 295.784149,54.622959 282.154510,60.519711 
	C282.154510,59.094440 282.154510,57.851273 282.154510,55.205711 
	C291.442169,54.161720 300.809113,53.108814 310.125824,51.449638 
z"/>
<path fill="#232323" opacity="1.000000" stroke="none" 
	d="
M461.448730,67.995789 
	C461.193481,68.139153 460.920868,68.190987 460.423523,68.112564 
	C460.617615,65.795006 461.018982,63.516193 461.534363,60.851360 
	C461.648407,60.465340 461.615662,60.418816 461.615662,60.418823 
	C462.264862,61.329140 462.909180,63.028511 463.564026,63.032562 
	C475.189209,63.104450 486.815704,62.975887 498.441589,62.855549 
	C498.823547,62.851597 499.201721,62.479324 500.123840,61.992561 
	C500.123840,63.902290 500.123840,65.512650 500.083221,67.552765 
	C500.042603,67.982513 499.598419,68.015923 499.032410,67.762840 
	C490.373932,67.399628 482.280945,67.181412 474.189270,67.223518 
	C469.941193,67.245628 465.695496,67.723648 461.448730,67.995789 
z"/>
<path fill="#070707" opacity="1.000000" stroke="none" 
	d="
M254.041000,74.019089 
	C242.625412,74.038162 231.209824,74.057236 219.378998,73.655388 
	C228.858978,68.406548 239.133911,68.871895 249.468231,71.257721 
	C251.117096,71.638390 252.522842,73.072182 254.041000,74.019089 
z"/>
<path fill="#0C0C0C" opacity="1.000000" stroke="none" 
	d="
M534.983398,68.148376 
	C536.165405,69.213585 537.347412,70.278786 538.529419,71.343994 
	C537.115723,72.186783 535.723694,73.712532 534.284729,73.758217 
	C526.642456,74.000824 518.985718,73.975357 511.340912,73.777344 
	C509.955688,73.741463 508.602417,72.471199 507.234406,71.770798 
	C508.251465,70.571754 509.268524,69.372719 510.975586,68.397148 
	C519.438171,68.463211 527.210815,68.305794 534.983398,68.148376 
z"/>
<path fill="#050505" opacity="1.000000" stroke="none" 
	d="
M36.918201,69.185806 
	C38.220493,70.366966 39.522789,71.548134 40.825081,72.729294 
	C39.100204,73.550407 37.397541,75.020416 35.646606,75.080353 
	C28.051332,75.340340 20.439743,75.279114 12.840075,75.091705 
	C11.671389,75.062889 10.534006,73.764771 9.382147,73.053688 
	C10.314009,71.988266 11.245870,70.922852 13.009537,69.916565 
	C20.535126,69.984673 27.229479,70.039101 33.922096,69.955254 
	C34.966103,69.942177 36.002213,69.298958 37.029232,69.016235 
	C37.016491,69.085342 36.918201,69.185806 36.918201,69.185806 
z"/>
<path fill="#303030" opacity="1.000000" stroke="none" 
	d="
M82.724136,36.769642 
	C82.191986,37.084503 81.810654,37.080460 81.278290,36.564926 
	C80.703636,35.662266 80.283600,34.934612 79.855835,34.930038 
	C72.620483,34.852726 65.383560,34.825253 58.149246,34.935379 
	C57.581078,34.944023 57.029613,36.050190 56.470390,36.646282 
	C56.279404,36.749516 56.088421,36.852749 55.574364,36.996811 
	C53.385548,34.992332 51.519810,32.947021 49.278732,30.911640 
	C48.903389,30.921572 48.995625,30.924461 49.383411,31.163296 
	C59.236111,31.334492 68.701309,31.198223 78.165787,31.237104 
	C81.400658,31.250397 84.633720,31.703171 87.867615,31.955147 
	C86.203392,33.453678 84.539169,34.952209 82.724136,36.769642 
z"/>
<path fill="#D1D1D1" opacity="1.000000" stroke="none" 
	d="
M254.376526,74.044418 
	C252.522842,73.072182 251.117096,71.638390 249.468231,71.257721 
	C239.133911,68.871895 228.858978,68.406548 218.976944,73.619583 
	C217.870499,73.098701 216.750885,72.192703 216.211426,71.080887 
	C216.904541,70.784233 217.111710,70.693657 217.111969,70.602501 
	C217.112595,70.370285 217.020798,70.137817 216.966003,69.905449 
	C216.966003,69.905449 216.926392,69.988319 216.894043,69.954773 
	C217.664124,70.007103 218.564606,70.375816 219.254379,70.136688 
	C230.784256,66.139549 242.297836,66.182449 254.455475,70.389343 
	C255.765610,70.796028 256.446930,70.907944 257.128265,71.019859 
	C256.322876,72.036491 255.517471,73.053116 254.376526,74.044418 
z"/>
<path fill="#E8E8E8" opacity="1.000000" stroke="none" 
	d="
M88.176552,31.887024 
	C84.633720,31.703171 81.400658,31.250397 78.165787,31.237104 
	C68.701309,31.198223 59.236111,31.334492 49.341400,31.179367 
	C49.647293,30.315086 50.378433,29.120674 51.119370,29.114565 
	C63.204426,29.014910 75.290787,29.053530 87.376534,29.118809 
	C87.964478,29.121984 88.549545,29.656462 89.556564,29.939449 
	C89.479950,30.563213 88.982719,31.191057 88.176552,31.887024 
z"/>
<path fill="#E8E8E8" opacity="1.000000" stroke="none" 
	d="
M49.708698,63.056824 
	C62.272251,62.968769 74.587982,62.921085 87.357956,62.898254 
	C88.148941,63.136471 88.485680,63.349834 88.879440,63.866337 
	C78.931229,64.431259 68.927048,64.787567 58.920155,64.897522 
	C55.896355,64.930748 52.865047,64.280983 49.407852,63.938271 
	C49.139309,63.654041 49.300091,63.375618 49.708698,63.056824 
z"/>
<path fill="#F3F3F3" opacity="1.000000" stroke="none" 
	d="
M256.089355,59.485657 
	C248.480972,58.791340 240.888153,57.550854 233.251343,57.151424 
	C229.428696,56.951485 225.525803,58.285706 221.214966,58.709309 
	C220.554077,58.010674 220.337433,57.528786 220.120789,57.046898 
	C232.125961,53.455425 244.010040,53.544807 255.886642,58.556000 
	C256.029999,58.893120 256.086792,59.286797 256.089355,59.485657 
z"/>
<path fill="#D1D1D1" opacity="1.000000" stroke="none" 
	d="
M378.418030,59.005630 
	C371.961548,55.154018 365.919708,55.386082 359.924927,59.661980 
	C358.949341,59.228920 357.986542,58.418503 357.232727,57.387924 
	C358.665466,56.797634 359.966797,56.585922 361.100189,56.031101 
	C367.403076,52.945591 373.449829,53.641697 379.746948,57.048248 
	C380.609833,57.336082 381.085419,57.649918 381.561005,57.963745 
	C380.629456,58.316643 379.697937,58.669552 378.418030,59.005630 
z"/>
<path fill="#000000" opacity="1.000000" stroke="none" 
	d="
M34.030342,65.854355 
	C35.031124,66.704666 36.031910,67.554970 36.975449,68.795547 
	C36.918201,69.185806 37.016491,69.085342 36.557701,69.012383 
	C28.428152,68.916237 20.757391,68.893044 13.086628,68.869858 
	C13.819663,67.941582 14.552698,67.013306 15.825651,66.341133 
	C22.253826,66.349609 28.142084,66.101982 34.030342,65.854355 
z"/>
<path fill="#E1E1E1" opacity="1.000000" stroke="none" 
	d="
M81.221153,58.071712 
	C72.991135,57.977440 64.761116,57.883167 56.169258,57.443886 
	C55.807423,57.098877 55.763008,57.234692 55.721745,57.276882 
	C58.018166,56.895069 60.346828,56.177383 62.695320,56.105244 
	C68.435928,55.928913 74.185715,56.051071 80.511627,56.399361 
	C81.134689,57.187668 81.177917,57.629688 81.221153,58.071712 
z"/>
<path fill="#616161" opacity="1.000000" stroke="none" 
	d="
M534.841553,67.844543 
	C527.210815,68.305794 519.438171,68.463211 511.342468,68.370026 
	C511.074768,67.924438 511.130127,67.729446 511.144043,67.233231 
	C518.692383,66.909706 526.282227,66.887383 534.326782,66.870056 
	C534.754272,67.096939 534.726990,67.318817 534.841553,67.844543 
z"/>
<path fill="#171717" opacity="1.000000" stroke="none" 
	d="
M265.837524,29.685188 
	C265.331085,30.017578 264.969238,30.015018 264.335907,30.008842 
	C263.898743,28.910997 263.463531,27.774052 263.628632,26.732239 
	C263.896942,25.039164 264.287781,23.223825 265.216705,21.862619 
	C265.498932,21.449047 267.724335,22.361553 269.059723,22.666702 
	C268.474640,24.471560 267.949280,26.299459 267.267303,28.066944 
	C267.068146,28.583149 266.422913,28.927250 265.837524,29.685188 
z"/>
<path fill="#202020" opacity="1.000000" stroke="none" 
	d="
M370.223755,24.565378 
	C369.738129,24.948362 369.263947,24.995470 368.432404,25.036091 
	C367.797241,24.349941 367.337708,23.685936 367.277557,22.987514 
	C367.129150,21.265560 367.164124,19.527805 367.125366,17.796400 
	C368.603699,17.860752 370.082001,17.925104 371.560333,17.989456 
	C371.435852,19.697754 371.365417,21.412991 371.147583,23.109301 
	C371.095459,23.515060 370.552460,23.857784 370.223755,24.565378 
z"/>
<path fill="#171717" opacity="1.000000" stroke="none" 
	d="
M124.079788,25.669569 
	C123.797073,26.001057 123.600967,25.999617 123.112946,25.961800 
	C122.246605,25.371485 121.285629,24.885233 121.174431,24.250185 
	C120.903397,22.702293 120.587494,20.887573 121.177017,19.580528 
	C121.468239,18.934845 124.547180,18.597075 124.920654,19.130699 
	C125.762146,20.333025 125.876732,22.161097 125.913139,23.743143 
	C125.925049,24.260635 124.781509,24.804718 124.079788,25.669569 
z"/>
<path fill="#E1E1E1" opacity="1.000000" stroke="none" 
	d="
M132.506897,57.972580 
	C132.238525,58.591396 131.298645,59.742374 130.992599,59.593182 
	C125.539139,56.934559 120.219055,57.363625 114.539955,60.003479 
	C113.873680,59.854702 113.587006,59.664314 113.149490,59.260498 
	C119.140137,54.733944 125.539314,54.716938 132.506897,57.972580 
z"/>
<path fill="#303030" opacity="1.000000" stroke="none" 
	d="
M294.729431,31.081873 
	C295.044922,31.657515 295.043274,32.024670 294.661743,32.621429 
	C289.746277,30.402229 285.072357,28.863161 279.542542,30.712969 
	C278.440521,30.500523 277.686768,30.238243 276.933014,29.975967 
	C282.980713,25.965221 288.748260,27.411467 294.729431,31.081873 
z"/>
<path fill="#101010" opacity="1.000000" stroke="none" 
	d="
M208.815155,28.618242 
	C208.542343,29.036705 208.323257,29.063995 207.774689,29.124454 
	C206.488953,28.592445 204.953110,28.213535 204.698959,27.422718 
	C204.193542,25.850065 204.127975,23.993992 204.472488,22.381456 
	C204.569138,21.929096 207.160294,21.333611 207.843948,21.838108 
	C208.921494,22.633276 209.603546,24.240229 209.955750,25.629593 
	C210.140106,26.356836 209.265320,27.352585 208.815155,28.618242 
z"/>
<path fill="#050505" opacity="1.000000" stroke="none" 
	d="
M516.831604,37.309582 
	C515.875366,37.032341 514.919128,36.755096 513.962952,36.477852 
	C514.001160,36.104031 514.039368,35.730213 514.077637,35.356392 
	C519.891235,35.356392 525.704834,35.356392 531.518433,35.356392 
	C531.630005,35.654823 531.741577,35.953251 531.853149,36.251682 
	C530.893982,36.594662 529.934753,36.937641 528.123047,37.146183 
	C523.790894,37.111023 520.311218,37.210300 516.831604,37.309582 
z"/>
<path fill="#616161" opacity="1.000000" stroke="none" 
	d="
M34.123772,65.612518 
	C28.142084,66.101982 22.253826,66.349609 16.163372,66.214104 
	C15.895403,65.672218 15.829632,65.513466 15.925375,65.153847 
	C21.721350,64.974640 27.355810,64.996307 33.451515,64.984451 
	C34.014240,65.090851 34.115723,65.230759 34.123772,65.612518 
z"/>
<path fill="#E8E8E8" opacity="1.000000" stroke="none" 
	d="
M325.151093,50.909153 
	C326.310822,49.322216 327.878784,47.763775 329.702942,46.090553 
	C331.440277,45.526848 332.921448,45.077915 335.075470,44.425041 
	C333.504028,47.014835 332.198456,49.166428 330.732605,51.582203 
	C329.092743,51.377884 327.326050,51.157768 325.151093,50.909153 
z"/>
<path fill="#909090" opacity="1.000000" stroke="none" 
	d="
M22.909027,37.231285 
	C23.512383,36.935802 23.930632,36.958878 24.663130,36.990467 
	C26.833010,37.886051 28.688641,38.773121 30.507179,40.019356 
	C27.092020,40.306606 23.713957,40.234692 19.928888,40.274612 
	C20.589231,39.440914 21.656576,38.495377 22.909027,37.231285 
z"/>
<path fill="#E8E8E8" opacity="1.000000" stroke="none" 
	d="
M276.590332,30.041506 
	C277.686768,30.238243 278.440521,30.500523 279.641510,30.991390 
	C280.391113,31.725985 280.693512,32.231987 280.995880,32.737991 
	C279.926636,33.420525 278.857422,34.103065 277.538086,34.856064 
	C275.982574,35.284107 274.677094,35.641685 272.345490,36.280334 
	C273.901367,33.818867 275.074493,31.962957 276.590332,30.041506 
z"/>
<path fill="#E8E8E8" opacity="1.000000" stroke="none" 
	d="
M331.739532,37.102692 
	C330.614746,36.337738 329.866089,35.545986 329.025269,34.494804 
	C329.115631,33.321777 329.298096,32.408180 329.624573,30.773561 
	C332.101227,32.864872 334.095062,34.548492 337.088135,37.075897 
	C334.476440,37.075897 333.296051,37.075897 331.739532,37.102692 
z"/>
<path fill="#BCBCBC" opacity="1.000000" stroke="none" 
	d="
M12.970175,69.073929 
	C20.757391,68.893044 28.428152,68.916237 36.570442,68.943268 
	C36.002213,69.298958 34.966103,69.942177 33.922096,69.955254 
	C27.229479,70.039101 20.535126,69.984673 13.380109,69.859550 
	C12.918876,69.743401 12.853723,69.278008 12.970175,69.073929 
z"/>
<path fill="#E8E8E8" opacity="1.000000" stroke="none" 
	d="
M273.985748,47.377785 
	C272.670502,45.982800 271.662415,44.669891 270.654358,43.356983 
	C271.176697,43.025997 271.699066,42.695007 272.221436,42.364021 
	C272.911926,44.062637 273.602417,45.761250 273.985748,47.377785 
z"/>
<path fill="#101010" opacity="1.000000" stroke="none" 
	d="
M219.767822,57.062824 
	C220.337433,57.528786 220.554077,58.010674 220.818451,58.769360 
	C219.661530,59.642380 218.456863,60.238602 216.929901,60.992805 
	C216.390915,60.674622 216.174240,60.198456 215.943481,59.444794 
	C217.091217,58.471111 218.253052,57.774933 219.767822,57.062824 
z"/>
<path fill="#E8E8E8" opacity="1.000000" stroke="none" 
	d="
M324.963898,29.881857 
	C324.963898,29.881857 325.003052,29.418219 325.085205,29.200550 
	C325.977539,28.863195 326.787750,28.743509 328.064697,28.554876 
	C327.676605,29.990858 327.353333,31.186953 327.000427,32.726681 
	C326.511871,33.024757 326.052917,32.979198 325.278351,32.435722 
	C324.963135,31.252491 324.963501,30.567173 324.963898,29.881857 
z"/>
<path fill="#909090" opacity="1.000000" stroke="none" 
	d="
M516.887756,37.610355 
	C520.311218,37.210300 523.790894,37.111023 527.723755,37.160690 
	C528.177063,37.309631 528.353271,37.725998 527.937256,37.953671 
	C527.362122,38.238480 527.202881,38.295620 527.043579,38.352764 
	C524.117981,38.327354 521.192444,38.301941 517.837769,38.292900 
	C517.253723,38.176556 517.098816,38.043842 516.887756,37.610355 
z"/>
<path fill="#E8E8E8" opacity="1.000000" stroke="none" 
	d="
M335.038330,39.186279 
	C335.642944,39.667389 335.938599,40.204746 336.234253,40.742107 
	C335.638336,40.947815 335.042450,41.153522 334.446533,41.359230 
	C334.540802,40.653660 334.635040,39.948093 335.038330,39.186279 
z"/>
<path fill="#E8E8E8" opacity="1.000000" stroke="none" 
	d="
M280.039642,54.103584 
	C279.556183,53.486897 279.235657,53.126450 278.930420,52.783176 
	C278.930420,52.639687 278.930420,52.513474 278.930420,52.387257 
	C280.065338,52.965076 281.200256,53.542896 282.335175,54.120716 
	C282.158630,54.420937 281.982086,54.721157 281.805542,55.021381 
	C281.271210,54.800861 280.736908,54.580341 280.039642,54.103584 
z"/>
<path fill="#E8E8E8" opacity="1.000000" stroke="none" 
	d="
M276.562897,51.264030 
	C275.951965,50.948597 275.540070,50.464291 275.128174,49.979988 
	C275.336914,49.824364 275.545685,49.668739 275.754456,49.513119 
	C276.090271,50.040466 276.426117,50.567814 276.562897,51.264030 
z"/>
<path fill="#303030" opacity="1.000000" stroke="none" 
	d="
M81.535812,58.055271 
	C81.177917,57.629688 81.134689,57.187668 80.970474,56.418533 
	C81.230278,56.014614 81.611053,55.937809 82.282547,55.883297 
	C82.716461,56.354156 82.859657,56.802723 83.055046,57.602642 
	C82.688316,57.982277 82.269386,58.010551 81.535812,58.055271 
z"/>
<path fill="#E8E8E8" opacity="1.000000" stroke="none" 
	d="
M326.072754,53.247799 
	C326.385498,53.093910 326.655090,53.188694 326.924683,53.283470 
	C326.754822,53.598583 326.584991,53.913700 326.415161,54.228825 
	C326.286621,53.984711 326.158112,53.740589 326.072754,53.247799 
z"/>
<path fill="#E8E8E8" opacity="1.000000" stroke="none" 
	d="
M271.668274,37.714859 
	C271.653381,37.986034 271.507233,38.135559 271.361084,38.285080 
	C271.419739,38.054451 271.478394,37.823826 271.668274,37.714859 
z"/>
<path fill="#101010" opacity="1.000000" stroke="none" 
	d="
M256.355835,61.969032 
	C256.041107,61.741642 256.006317,61.292343 255.952393,60.505547 
	C256.167419,60.694408 256.401581,61.220768 256.355835,61.969032 
z"/>
<path fill="#E8E8E8" opacity="1.000000" stroke="none" 
	d="
M323.937683,54.219074 
	C324.057129,54.397335 323.998718,54.579697 323.940308,54.762062 
	C323.880127,54.582436 323.819977,54.402809 323.937683,54.219074 
z"/>
<path fill="#101010" opacity="1.000000" stroke="none" 
	d="
M257.062866,70.794586 
	C256.446930,70.907944 255.765610,70.796028 254.824890,70.424133 
	C254.880920,70.110077 255.196350,70.056000 255.986389,69.928169 
	C256.790466,69.979652 256.969299,70.217957 257.062866,70.794586 
z"/>
<path fill="#030303" opacity="1.000000" stroke="none" 
	d="
M527.162476,38.504517 
	C527.202881,38.295620 527.362122,38.238480 527.759094,38.092766 
	C528.042053,38.171520 528.087219,38.338852 528.048218,38.752151 
	C527.703613,38.949760 527.476135,38.835812 527.162476,38.504517 
z"/>
<path fill="#232323" opacity="1.000000" stroke="none" 
	d="
M462.720490,59.966812 
	C462.972717,60.087067 462.990662,60.269447 463.004181,60.726685 
	C462.724030,61.025013 462.448273,61.048481 461.894104,60.745384 
	C461.615662,60.418816 461.648407,60.465340 461.644775,60.477295 
	C461.979645,60.440060 462.261353,60.286625 462.720490,59.966812 
z"/>
<path fill="#090909" opacity="1.000000" stroke="none" 
	d="
M216.700500,69.945435 
	C217.020798,70.137817 217.112595,70.370285 217.111969,70.602501 
	C217.111710,70.693657 216.904541,70.784233 216.469360,70.914536 
	C216.243103,70.631142 216.339066,70.308281 216.700500,69.945435 
z"/>
<path fill="#232323" opacity="1.000000" stroke="none" 
	d="
M457.016357,73.282593 
	C457.334015,73.076027 457.575409,73.225418 457.887451,73.627228 
	C457.662140,73.729294 457.322784,73.648926 457.016357,73.282593 
z"/>
<path fill="#F3F3F3" opacity="1.000000" stroke="none" 
	d="
M484.911652,54.828587 
	C487.876862,54.828587 490.357147,54.828587 492.837402,54.828587 
	C492.819397,55.349224 492.801361,55.869858 492.783356,56.390495 
	C484.534515,56.390495 476.285645,56.390495 468.036804,56.390495 
	C468.001434,55.869858 467.966095,55.349224 467.930756,54.828587 
	C473.429413,54.828587 478.928040,54.828587 484.911652,54.828587 
z"/>
<path fill="#E8E8E8" opacity="1.000000" stroke="none" 
	d="
M486.815552,33.072159 
	C489.129547,33.173100 490.968750,33.274036 492.807953,33.374973 
	C492.790222,33.814720 492.772461,34.254467 492.754730,34.694214 
	C484.506714,34.694214 476.258698,34.694214 468.010681,34.694214 
	C467.965454,34.165634 467.920227,33.637058 467.875000,33.108479 
	C474.030243,33.096375 480.185516,33.084267 486.815552,33.072159 
z"/>
<path fill="#E1E1E1" opacity="1.000000" stroke="none" 
	d="
M123.163376,51.070110 
	C120.245461,51.499287 117.746048,51.928127 114.778709,52.437252 
	C119.199226,47.787922 126.811424,47.710419 132.232361,52.381367 
	C128.874405,51.872227 126.228142,51.471001 123.163376,51.070110 
z"/>
<path fill="#D1D1D1" opacity="1.000000" stroke="none" 
	d="
M121.011047,38.049461 
	C121.955353,36.956501 122.495140,35.899029 122.960785,34.986828 
	C124.694000,36.581039 126.191109,37.958076 127.464409,39.129257 
	C126.087914,40.570480 124.650116,42.075886 123.310120,43.478893 
	C122.255402,42.519005 120.895180,41.441189 119.792336,40.144482 
	C119.567444,39.880062 120.309967,38.792862 121.011047,38.049461 
z"/>
<path fill="#D1D1D1" opacity="1.000000" stroke="none" 
	d="
M369.871979,47.365074 
	C372.791748,48.014725 375.303223,48.656330 377.814697,49.297935 
	C377.703033,49.661777 377.591339,50.025616 377.479675,50.389458 
	C372.017670,50.389458 366.555634,50.389458 361.093628,50.389458 
	C360.969055,50.041656 360.844482,49.693855 360.719879,49.346050 
	C363.634491,48.683044 366.549072,48.020039 369.871979,47.365074 
z"/>
<path fill="#D1D1D1" opacity="1.000000" stroke="none" 
	d="
M370.543335,35.505844 
	C371.652374,36.447147 372.684326,37.027435 373.716309,37.607719 
	C373.060913,37.094559 372.405548,36.581398 371.750153,36.068241 
	C369.717865,36.884892 367.685577,37.701546 365.653290,38.518200 
	C367.516479,39.050499 369.379700,39.582798 371.242889,40.115101 
	C369.927185,38.626072 368.611481,37.137047 367.295776,35.648022 
	C366.572693,36.441528 365.849609,37.235031 365.126556,38.028538 
	C366.207703,36.752411 367.214508,35.395145 368.437836,34.274185 
	C368.660828,34.069862 369.767517,34.829937 370.543335,35.505844 
z"/>
<path fill="#E8E8E8" opacity="1.000000" stroke="none" 
	d="
M56.895126,36.761086 
	C57.029613,36.050190 57.581078,34.944023 58.149246,34.935379 
	C65.383560,34.825253 72.620483,34.852726 79.855835,34.930038 
	C80.283600,34.934612 80.703636,35.662266 80.998878,36.487518 
	C73.020279,36.906361 65.170067,36.891121 56.895126,36.761086 
z"/>
<path fill="#FCFCFC" opacity="1.000000" stroke="none" 
	d="
M312.430420,35.653027 
	C312.018494,34.733036 311.706238,33.412979 312.037872,33.224243 
	C313.851715,32.191929 315.823700,31.437429 318.146362,30.788765 
	C318.250092,31.779377 318.176117,32.903362 317.603088,33.292622 
	C316.129120,34.293831 314.434021,34.969452 312.430420,35.653027 
z"/>
<path fill="#FCFCFC" opacity="1.000000" stroke="none" 
	d="
M324.528168,29.938675 
	C324.963501,30.567173 324.963135,31.252491 324.966797,32.280769 
	C322.990082,32.386536 321.009308,32.149342 319.259888,31.478886 
	C321.024933,30.695583 322.558685,30.345539 324.528168,29.938675 
z"/>
<path fill="#FCFCFC" opacity="1.000000" stroke="none" 
	d="
M306.332153,41.293827 
	C305.453308,38.000221 307.018005,36.148708 311.344604,35.505600 
	C309.907349,37.868305 308.266327,39.714771 306.332153,41.293827 
z"/>
<path fill="#FCFCFC" opacity="1.000000" stroke="none" 
	d="
M281.445801,32.744331 
	C280.693512,32.231987 280.391113,31.725985 279.989777,30.941559 
	C285.072357,28.863161 289.746277,30.402229 294.652893,32.897591 
	C295.050873,33.879230 295.077881,34.814312 294.537567,35.642754 
	C289.945435,34.607639 285.920563,33.679157 281.445801,32.744331 
z"/>
<path fill="#F3F3F3" opacity="1.000000" stroke="none" 
	d="
M81.792099,68.916077 
	C84.054779,68.917686 85.846916,68.917686 87.639046,68.917686 
	C87.645920,69.587151 87.652786,70.256615 87.659660,70.926079 
	C75.221512,71.067055 62.782928,71.187286 50.333557,70.802681 
	C50.296482,70.171028 50.259411,69.539368 50.222340,68.907715 
	C55.259167,68.907715 60.295998,68.906845 65.332825,68.907959 
	C70.662399,68.909134 75.991974,68.912209 81.792099,68.916077 
z"/>
<path fill="#E1E1E1" opacity="1.000000" stroke="none" 
	d="
M229.917709,63.631584 
	C226.382721,64.665558 223.262665,65.581604 219.918106,66.563568 
	C223.786194,59.264782 245.279526,58.918762 253.101151,65.176987 
	C245.968582,64.655930 238.150620,64.084793 229.917709,63.631584 
z"/>
<path fill="#BCBCBC" opacity="1.000000" stroke="none" 
	d="
M461.561249,68.412811 
	C465.695496,67.723648 469.941193,67.245628 474.189270,67.223518 
	C482.280945,67.181412 490.373932,67.399628 498.809662,67.763062 
	C498.759918,68.471710 498.363159,69.327843 497.974457,69.324196 
	C485.873749,69.211067 473.773804,69.014008 461.561249,68.412811 
z"/>
</svg>