<svg version="1.1" id="Layer_1" xmlns="http://www.w3.org/2000/svg" xmlns:xlink="http://www.w3.org/1999/xlink" x="0px" y="0px"
	 width="100%" viewBox="0 0 983 177" enable-background="new 0 0 983 177" xml:space="preserve">
<path fill="#181818" opacity="1.000000" stroke="none" 
	d="
M721.000000,178.000000 
	C480.666656,178.000000 240.833328,178.000000 1.000000,178.000000 
	C1.000000,119.000000 1.000000,60.000000 1.000000,1.000000 
	C328.666656,1.000000 656.333313,1.000000 984.000000,1.000000 
	C984.000000,60.000000 984.000000,119.000000 984.000000,178.000000 
	C896.500000,178.000000 809.000000,178.000000 721.000000,178.000000 
M908.783813,137.523102 
	C908.519226,138.011154 908.254578,138.499191 907.201355,138.990906 
	C904.030457,138.925308 901.862610,140.274948 902.081238,143.626648 
	C902.361511,147.925247 905.672974,148.923416 909.208313,148.945297 
	C923.033752,149.030899 936.860046,148.975189 950.686035,148.984024 
	C954.470642,148.986450 957.624390,147.530273 957.732056,143.542068 
	C957.844177,139.388687 954.558655,138.615295 950.999695,138.316193 
	C950.990234,137.870041 950.980835,137.423874 951.263367,136.328812 
	C950.383606,135.217880 949.520203,133.154907 948.621765,133.139542 
	C936.221008,132.927444 923.814880,132.934067 911.411682,133.052826 
	C909.066223,133.075287 906.837952,133.883820 908.783813,137.523102 
M385.916962,145.315338 
	C386.112915,145.607681 386.308838,145.900040 387.003510,146.568680 
	C388.007599,146.761368 389.011719,146.954056 390.172211,147.845978 
	C391.780212,148.567093 393.349915,149.803116 395.002441,149.926086 
	C406.052551,150.748474 417.115936,151.731628 428.183929,151.854141 
	C435.411224,151.934143 442.670868,150.789154 449.874756,149.869583 
	C451.341156,149.682404 452.623047,148.049652 454.675598,147.042740 
	C455.698792,146.240494 456.721985,145.438248 457.861298,143.774200 
	C455.597473,137.371689 455.159698,130.978745 457.920227,124.586403 
	C458.035614,124.319214 457.883942,123.936691 457.729279,123.273567 
	C457.729279,123.273567 457.965393,123.004761 458.665833,122.952942 
	C463.545807,118.498878 468.696808,114.114151 469.725433,107.108459 
	C471.023041,98.270981 471.666626,89.333771 473.089142,80.519768 
	C473.894714,75.528374 471.790955,69.506989 478.747772,66.296013 
	C481.699036,64.933838 481.568237,60.225376 479.377167,57.349304 
	C477.489777,54.871899 474.584015,54.820908 471.788208,56.600868 
	C468.671417,58.585197 467.780670,62.081196 469.567352,64.347305 
	C472.420105,67.965485 470.354645,70.422615 469.122955,73.314194 
	C468.411560,74.984337 467.611572,76.618446 466.808350,78.247505 
	C462.527435,86.929855 458.232910,95.605484 453.417664,105.346344 
	C453.168427,103.459892 453.047974,102.854263 453.013672,102.243797 
	C452.344208,90.323883 451.565216,78.408089 451.098938,66.480095 
	C450.965546,63.068256 449.716858,59.293041 453.743225,56.576832 
	C456.993256,54.384357 457.062805,50.599472 454.912445,47.731853 
	C452.616364,44.669910 449.079712,44.538292 446.130524,47.112595 
	C443.189087,49.680141 443.402740,52.649487 445.346893,56.041435 
	C446.337097,57.769073 446.538391,60.347099 446.160706,62.365635 
	C445.618011,65.265579 444.174408,67.989517 443.197662,70.817017 
	C439.801941,80.646759 436.441681,90.488762 432.763611,101.213432 
	C431.992218,99.241882 431.478241,98.365044 431.307617,97.425835 
	C429.177795,85.700508 427.158905,73.954742 424.974792,62.239731 
	C424.110382,57.603386 423.286530,53.381538 427.357666,49.365704 
	C428.408813,48.328861 427.475525,43.455494 425.913879,42.021408 
	C423.560272,39.860104 419.939392,40.208889 417.486603,43.063358 
	C415.203705,45.720127 415.276276,48.507156 417.652771,51.106930 
	C418.539429,52.076900 419.614746,52.874397 420.666382,53.805767 
	C417.948059,69.353683 415.234406,84.875069 412.520752,100.396454 
	C406.658264,87.075485 401.899323,73.814400 397.431152,60.456039 
	C396.992798,59.145466 398.139496,57.135471 398.901398,55.627441 
	C400.556335,52.352062 401.110046,49.114491 397.891357,46.693832 
	C394.952606,44.483673 391.917023,45.095081 389.540344,47.984043 
	C386.962708,51.117256 387.458954,53.965561 390.240753,56.795391 
	C391.412415,57.987312 392.905823,59.663765 392.884094,61.099228 
	C392.733246,71.059441 392.293365,81.017776 391.793488,90.969040 
	C391.575714,95.304268 390.997589,99.621399 390.481873,105.003647 
	C384.555450,92.769180 378.985901,81.481087 373.697327,70.062881 
	C373.100586,68.774490 374.118256,66.755516 374.335236,65.068626 
	C374.590973,63.080280 375.690033,60.383442 374.808472,59.251858 
	C373.386444,57.426407 370.712250,55.894058 368.432037,55.680885 
	C367.110046,55.557289 364.645142,58.051617 364.258484,59.728470 
	C363.641937,62.402344 363.027008,65.625603 366.753204,67.509537 
	C368.275116,68.279007 369.822266,70.371735 370.074310,72.054703 
	C371.592346,82.190102 373.092438,92.353157 373.902374,102.562195 
	C374.625854,111.681595 378.995422,118.137192 386.279663,123.027481 
	C386.279663,123.027481 386.305023,122.987740 386.209137,123.879272 
	C388.589020,130.505402 389.369141,137.115204 386.115173,143.727448 
	C385.936920,144.089661 386.245819,144.691620 386.283905,145.125275 
	C386.283905,145.125275 386.335358,145.164566 385.916962,145.315338 
M502.502930,126.842117 
	C502.566711,127.164177 502.459229,127.411873 502.106293,128.602615 
	C502.202515,131.695267 502.298706,134.787933 502.482574,138.466400 
	C503.657959,139.333496 504.833344,140.200607 506.138092,141.754181 
	C507.309753,142.598938 508.368530,143.726822 509.670135,144.245590 
	C526.812073,151.077728 544.323730,152.011444 561.993286,146.748993 
	C565.876221,145.592545 569.334961,143.011871 573.619995,140.996002 
	C574.655945,140.185349 575.691956,139.374695 576.839844,137.589813 
	C576.658203,133.729172 576.476562,129.868530 575.923340,125.611961 
	C575.880066,125.436195 575.836731,125.260437 576.449829,124.518196 
	C576.525940,121.749336 576.602112,118.980476 576.488403,116.223976 
	C576.488403,116.223976 576.446777,116.038399 577.260742,116.015327 
	C586.250244,112.621719 593.012512,106.306183 596.290833,97.638702 
	C598.108643,92.832687 597.894775,86.407761 596.390381,81.371582 
	C593.198303,70.685577 578.465027,63.821110 566.376526,67.402084 
	C562.662109,68.502388 559.048828,69.944229 555.052917,71.347824 
	C555.397461,64.552078 552.434021,59.528667 547.412476,56.143368 
	C543.261230,53.344765 543.586914,50.177826 544.233887,47.846771 
	C547.513794,45.900555 549.669800,44.621254 551.825806,43.341965 
	C549.591125,41.798683 547.356445,40.255402 544.674866,38.403530 
	C543.841675,37.355701 542.544128,35.723816 541.246521,34.091911 
	C539.748291,35.790989 538.250122,37.490067 536.751892,39.189144 
	C536.700073,39.043507 536.648254,38.897869 536.596375,38.752232 
	C534.513977,40.213684 532.431519,41.675133 530.349121,43.136585 
	C532.608765,44.566933 534.868408,45.997284 537.869995,47.897278 
	C538.389954,50.528511 538.321289,53.507702 534.540894,56.227367 
	C529.001160,60.212719 526.376587,66.025276 527.978943,73.947258 
	C526.109131,72.837959 524.937317,72.059044 523.693970,71.419044 
	C516.814941,67.878029 509.766235,65.767876 501.781708,66.958321 
	C488.611908,68.921844 481.095490,86.131248 484.082153,95.020218 
	C487.265686,104.495049 493.722168,110.687897 502.518677,115.656212 
	C502.813965,116.360100 503.109283,117.063980 502.703949,118.318962 
	C502.543793,121.051613 502.383606,123.784264 502.502930,126.842117 
M160.972763,70.746590 
	C161.311371,68.710960 161.924805,66.677780 161.942947,64.639297 
	C162.043243,53.369526 161.997498,53.461636 150.695541,53.946301 
	C147.888336,54.066677 146.638763,55.003540 147.013855,57.764645 
	C147.530441,61.567165 145.455399,62.293259 142.282196,62.025143 
	C140.466705,61.871738 138.550812,62.299850 136.828583,61.870567 
	C135.746109,61.600750 134.048187,60.103508 134.150421,59.369076 
	C134.890244,54.054539 131.816544,53.724804 127.877914,53.974667 
	C125.063904,54.153183 122.179604,53.705299 119.426842,54.152927 
	C118.160225,54.358898 116.100777,56.122044 116.172760,57.040169 
	C116.529823,61.594620 114.263092,62.444191 110.479164,62.028419 
	C108.836914,61.847969 107.152077,61.899757 105.498344,62.014923 
	C102.917137,62.194679 101.690140,61.073154 102.039619,58.525650 
	C102.589088,54.520367 100.530334,53.632000 97.070251,53.974434 
	C95.094986,54.169922 93.069283,53.869236 91.097618,54.082081 
	C90.099686,54.189808 88.321419,54.981697 88.340942,55.396183 
	C88.574760,60.359184 89.080017,65.309395 89.481331,70.792168 
	C89.920792,71.634995 90.360252,72.477814 91.132607,73.986786 
	C92.245964,74.968323 93.212769,76.249550 94.498627,76.878311 
	C99.454681,79.301712 100.332764,83.321777 100.100815,88.408607 
	C99.746056,96.188713 99.703781,104.012886 100.112198,111.787712 
	C100.395020,117.171661 99.196259,121.424141 94.837204,124.823418 
	C93.547905,125.828835 92.972878,127.750206 91.886230,129.747986 
	C91.575127,130.167130 91.264023,130.586273 90.175125,131.187332 
	C89.552032,134.622543 88.928932,138.057755 88.283188,141.617844 
	C86.682640,141.892410 85.099655,142.163956 83.624779,142.416946 
	C81.911720,151.781082 82.071579,151.979553 91.034111,151.979614 
	C113.955101,151.979782 136.876083,151.980164 159.797073,151.978333 
	C161.125671,151.978226 162.458496,152.023438 163.782059,151.936493 
	C167.596527,151.685898 166.903488,148.777634 166.965576,146.371872 
	C167.021683,144.198593 167.306229,141.688217 163.914108,142.030609 
	C160.279709,142.397446 160.052933,140.339508 159.901199,137.473663 
	C159.768188,134.961319 158.743027,132.496185 157.678268,129.773163 
	C157.386276,129.600037 157.162827,129.362442 156.947601,128.361969 
	C155.840759,126.951340 154.955490,125.257675 153.584518,124.184448 
	C149.841248,121.254112 148.679169,117.644905 148.907852,112.928345 
	C149.284470,105.161041 149.300354,97.347740 148.914078,89.581398 
	C148.627975,83.829407 149.457001,79.201637 155.376877,76.662964 
	C156.564163,76.153793 157.256241,74.489868 158.675644,73.102577 
	C159.191376,72.393478 159.707108,71.684380 160.972763,70.746590 
M819.141479,69.557144 
	C820.091980,70.020287 821.042542,70.483437 822.047180,71.653221 
	C822.997864,72.748589 823.745667,74.204964 824.936035,74.873856 
	C829.029663,77.174194 830.295105,80.432861 830.097656,85.086937 
	C829.731323,93.723793 829.841675,102.391136 830.062744,111.037880 
	C830.158813,114.795067 829.284607,117.678291 826.406250,120.281601 
	C824.581787,121.931702 823.549805,124.458000 821.796082,126.929581 
	C821.473694,127.291420 821.151367,127.653267 820.070068,128.223999 
	C819.711731,130.080292 819.063599,131.936096 819.060486,133.792984 
	C819.055237,136.863388 819.113953,139.481873 814.759155,139.151962 
	C813.920349,139.088409 812.330017,140.688904 812.136963,141.718719 
	C811.019592,147.677994 812.263000,148.994507 818.507568,148.996201 
	C842.096008,149.002594 865.684387,148.999680 889.272827,148.998215 
	C896.210205,148.997787 896.226440,148.994064 895.980835,142.292862 
	C895.946167,141.345749 895.664124,140.407715 895.405884,138.955734 
	C889.603577,140.401230 889.972229,136.691483 889.889526,132.917953 
	C889.853333,131.267776 888.699097,129.642105 887.718689,127.616867 
	C887.170471,127.218254 886.622192,126.819649 885.997742,125.667442 
	C885.001709,123.971924 884.376953,121.804077 882.937439,120.672684 
	C879.165588,117.708069 878.854614,113.908768 878.947876,109.601143 
	C879.138245,100.816658 879.124634,92.022667 878.942627,83.237823 
	C878.875244,79.983788 879.531067,77.624863 882.511230,75.791313 
	C884.317749,74.679840 885.527771,72.598770 887.567871,70.706337 
	C888.380432,70.137367 889.192993,69.568398 890.792847,68.814705 
	C891.189514,66.479103 891.931274,64.142570 891.924927,61.808064 
	C891.892212,49.710167 893.844910,51.143017 880.502197,50.984692 
	C877.371399,50.947544 875.823730,52.069145 875.979126,55.335995 
	C876.030518,56.415901 875.641785,57.516739 875.454773,58.605347 
	C871.581604,58.605347 868.027405,58.605347 864.529785,58.605347 
	C863.204956,49.322876 863.747131,51.302368 855.487732,51.024685 
	C853.495667,50.957706 851.494263,51.107792 849.506165,50.996204 
	C846.383667,50.820934 844.815186,52.050339 844.971985,55.326340 
	C845.023743,56.407234 844.640137,57.508976 844.388184,58.999691 
	C841.345764,58.999691 838.542603,58.878544 835.754883,59.033745 
	C832.966553,59.188980 831.641235,58.098415 832.022888,55.293308 
	C832.534790,51.530914 830.537903,50.914623 827.323547,50.964787 
	C815.731323,51.145691 817.071045,49.976036 817.009277,60.979134 
	C816.999023,62.807194 816.820435,64.665726 817.098999,66.450966 
	C817.241394,67.363510 818.224426,68.144875 819.141479,69.557144 
M237.669235,125.062462 
	C238.116013,125.051056 238.562775,125.039642 239.472733,125.508659 
	C240.312592,124.249962 241.744186,123.039406 241.851425,121.721123 
	C242.006271,119.817787 241.427109,117.754036 240.756027,115.905823 
	C239.479889,112.391167 239.988129,109.933029 243.047394,107.244308 
	C250.842300,100.393562 251.157761,87.791252 243.805359,80.440140 
	C240.074844,76.710266 235.680054,73.639725 231.546616,70.319611 
	C228.674011,68.012268 225.735031,65.787529 222.710892,63.436626 
	C227.309601,59.257751 228.243240,55.296555 225.878784,52.472229 
	C223.472946,49.598473 220.217773,49.543278 217.181580,52.324734 
	C213.790344,55.431458 214.211578,57.352821 219.871796,63.596004 
	C214.117111,67.806633 208.389984,71.988426 202.672012,76.182724 
	C192.133179,83.913246 189.853317,99.724960 198.845078,106.914230 
	C202.529205,109.859833 202.860367,112.286140 201.537689,116.060837 
	C200.885757,117.921364 200.628769,119.921646 200.211319,121.862610 
	C199.652802,124.459595 200.987350,125.165810 203.869705,124.991982 
	C204.256012,125.079430 204.642303,125.166878 205.159515,125.954567 
	C209.092606,127.641296 213.025711,129.328018 218.397537,131.631760 
	C213.868393,133.246918 210.103439,135.269928 206.131561,135.832672 
	C201.235489,136.526367 196.152161,135.760193 191.176865,136.065979 
	C184.062057,136.503250 177.883163,139.213531 172.442154,144.792130 
	C175.858353,147.008209 176.769882,153.128464 182.094910,149.804932 
	C188.016922,146.108795 194.385132,145.490570 201.051819,144.844467 
	C207.204666,144.248184 213.231262,142.382675 219.328568,141.150909 
	C220.499405,140.914368 221.781387,140.799362 222.942047,141.011551 
	C229.873810,142.278717 236.811996,143.534988 243.694260,145.040619 
	C248.823944,146.162857 254.496048,146.631042 258.797241,149.247238 
	C264.032867,152.431747 265.958618,149.040100 268.010315,146.234879 
	C270.946716,142.220032 266.011505,141.915283 264.310181,140.311035 
	C263.054657,139.127136 261.116272,138.255432 259.388489,138.055939 
	C252.023178,137.205521 244.631378,136.530090 237.232605,136.044449 
	C232.604004,135.740646 228.507629,134.705444 225.256271,130.472839 
	C227.624588,129.885498 229.646881,129.707275 231.351944,128.877304 
	C233.375076,127.892525 235.125137,126.346718 237.669235,125.062462 
M641.252930,123.519920 
	C645.160095,125.009399 649.067200,126.498878 653.225586,128.084137 
	C650.852844,131.137207 647.558594,132.953796 643.326782,132.999573 
	C638.828979,133.048233 634.310730,132.751328 629.836426,133.081100 
	C621.981018,133.660065 614.664062,135.751373 609.206299,141.541916 
	C611.561584,144.287125 613.580688,146.640381 615.826843,149.258347 
	C623.558167,142.541870 632.792786,142.993240 641.819641,141.793900 
	C651.783875,140.470032 661.177124,139.197906 671.487610,141.521027 
	C680.880249,143.637344 690.945129,142.722565 699.290100,149.228302 
	C701.783569,146.617142 703.914368,144.385727 706.763123,141.402466 
	C703.178467,139.337204 700.335938,137.438431 697.280029,135.989731 
	C689.303284,132.208130 680.717957,132.985779 672.255981,133.024643 
	C667.727905,133.045441 664.260071,131.189117 662.036133,128.697311 
	C666.000366,126.479935 669.656372,124.434929 673.826965,122.445213 
	C674.412048,122.256950 674.997192,122.068687 676.361511,121.939850 
	C677.020874,121.169518 678.306213,120.329781 678.229858,119.641014 
	C677.921204,116.857559 676.821167,114.130890 676.744751,111.363045 
	C676.689758,109.376091 677.152893,106.490128 678.491455,105.497711 
	C685.450500,100.338310 686.683167,88.932648 683.280762,82.480598 
	C679.020508,74.401688 671.319580,70.272026 664.381775,65.258408 
	C661.167603,62.935642 658.391663,61.226501 662.157898,56.727940 
	C663.274475,55.394215 662.496948,50.416500 661.069153,49.516140 
	C659.156433,48.310001 655.174988,48.519478 653.159668,49.807549 
	C650.572571,51.461132 649.881348,54.816013 652.943604,57.444820 
	C656.095703,60.150677 654.958984,62.042175 652.032471,64.047943 
	C647.664429,67.041763 643.455566,70.271431 639.227783,73.465408 
	C629.214417,81.030182 625.807007,95.028091 633.891663,102.570320 
	C639.570740,107.868370 638.451294,112.182449 636.903442,117.717796 
	C636.637146,118.670082 635.918823,119.960838 636.285583,120.510727 
	C636.773315,121.241783 638.120667,121.399361 639.612000,121.991333 
	C640.055115,122.277100 640.498230,122.562859 641.252930,123.519920 
M734.116882,112.231606 
	C734.080566,114.896622 734.144958,117.567795 733.982544,120.225098 
	C733.777771,123.574669 735.035278,125.072716 738.573425,125.041481 
	C751.738770,124.925209 764.906860,124.902031 778.071411,125.057220 
	C781.661194,125.099548 782.024597,123.501373 781.993225,120.472420 
	C781.949829,116.274498 781.993042,111.925575 783.008972,107.895897 
	C785.696411,97.236809 788.073608,86.639168 785.998474,75.566933 
	C784.359314,66.821175 780.931274,59.162193 773.541077,53.638302 
	C772.557983,52.903503 772.389893,51.078381 771.844360,49.758205 
	C773.563660,49.707958 775.750549,48.947826 776.926453,49.722458 
	C784.669983,54.823406 789.781677,62.351582 790.718567,71.292946 
	C791.742432,81.065102 790.647156,91.055695 790.564636,100.951836 
	C790.553955,102.227188 791.076721,103.506996 791.352417,104.784714 
	C792.738098,104.097610 794.233337,103.558495 795.457275,102.652763 
	C795.968018,102.274834 796.006592,101.126572 796.081055,100.312218 
	C796.743408,93.065094 797.881714,85.814690 797.887024,78.564529 
	C797.896545,65.530968 791.845642,55.184967 781.594666,47.508728 
	C777.662476,44.564259 773.211121,41.007919 768.164551,44.519512 
	C765.099182,41.381760 762.339050,38.556412 759.455017,35.604294 
	C758.535767,36.814354 758.248657,37.041599 758.173523,37.325027 
	C758.047791,37.799511 757.939819,38.331802 758.027649,38.801739 
	C759.155457,44.830894 756.700745,48.588074 750.974731,50.620239 
	C749.769897,51.047840 748.871948,52.520386 747.987793,53.634624 
	C746.052307,56.073925 744.452942,58.824913 742.287170,61.026516 
	C738.564148,64.811165 734.425598,68.183533 730.624512,71.895874 
	C726.700806,75.727943 727.273621,80.919228 731.890808,85.376999 
	C735.789612,89.141068 741.458618,89.278404 744.529602,84.725502 
	C748.294739,79.143379 752.961975,81.393013 758.019470,81.999275 
	C749.452759,91.426689 739.077576,99.199547 734.116882,112.231606 
M348.236542,82.465904 
	C350.023621,78.695259 348.784607,75.845596 345.771088,73.255135 
	C341.744202,69.793541 337.858612,66.161743 334.009583,62.500774 
	C330.156586,58.836075 326.720886,54.655315 322.525970,51.456436 
	C320.009125,49.537163 317.635040,48.575378 318.865662,44.717709 
	C319.390747,43.071701 318.702911,41.038769 318.566254,39.181667 
	C317.984192,38.860416 317.402161,38.539162 316.820099,38.217907 
	C314.227722,41.305870 311.635345,44.393837 309.594574,46.824760 
	C306.344604,46.824760 303.576660,46.107773 301.422729,46.953888 
	C293.748932,49.968338 288.108337,55.445755 284.102234,62.694408 
	C276.752045,75.993813 278.279572,89.906555 280.987732,103.938583 
	C281.677429,107.512207 283.899200,107.288689 285.876831,106.674774 
	C285.575592,97.490860 284.730164,88.702530 285.142181,79.973557 
	C285.656097,69.086205 290.200165,59.744938 298.873047,52.781006 
	C301.587830,50.601154 304.242676,50.094666 305.591766,53.687580 
	C301.945374,57.848988 297.951141,61.291973 295.360077,65.582367 
	C288.709747,76.594185 289.379486,88.654984 291.386902,100.842636 
	C292.657837,108.558899 297.383240,115.713074 295.189423,124.075081 
	C295.019043,124.724693 297.298889,126.868904 298.461426,126.886368 
	C311.950195,127.089020 325.443909,127.078499 338.933777,126.916336 
	C340.245239,126.900566 342.632935,125.529839 342.657440,124.730873 
	C342.777802,120.809052 343.567352,116.060837 341.724121,113.092796 
	C337.152496,105.731323 331.381287,99.094284 325.870392,92.347244 
	C323.806305,89.820145 321.128448,87.794373 318.730438,85.540031 
	C319.004639,85.105141 319.278839,84.670242 319.553040,84.235352 
	C324.246765,84.586266 329.778351,81.317635 332.979004,88.244171 
	C333.397766,89.150398 335.132172,89.751511 336.342896,89.938118 
	C342.552795,90.895203 344.678925,89.588448 348.236542,82.465904 
M316.500000,151.003662 
	C325.990906,151.003647 335.483063,151.083878 344.971710,150.937515 
	C346.924957,150.907394 350.288422,150.417023 350.544220,149.472946 
	C351.307251,146.656586 352.147247,143.329300 348.685791,140.982697 
	C347.149384,139.941101 346.376251,137.838425 345.011353,136.460327 
	C343.712311,135.148758 342.109192,133.192062 340.613281,133.168015 
	C325.465057,132.924561 310.309784,132.919952 295.161469,133.159821 
	C293.476837,133.186478 291.610443,134.924957 290.211243,136.268372 
	C288.645935,137.771301 287.196716,139.578491 286.282471,141.527863 
	C285.236389,143.758408 284.292542,146.323563 284.433685,148.675537 
	C284.486176,149.550156 287.717468,150.849533 289.527740,150.898514 
	C298.179779,151.132446 306.841644,151.003555 316.500000,151.003662 
M728.492126,138.048798 
	C727.730652,140.909195 726.969116,143.769592 726.207642,146.630005 
	C728.332031,147.093277 730.454102,147.946289 732.581116,147.958649 
	C750.865967,148.065018 769.152039,148.068161 787.436584,147.941635 
	C789.200684,147.929443 792.404846,146.923203 792.449402,146.220551 
	C792.590088,144.000900 791.932556,141.498245 790.855347,139.497330 
	C789.712891,137.375427 787.847534,135.588516 786.085754,133.873215 
	C784.898315,132.717133 783.363281,131.154861 781.949036,131.118378 
	C772.480103,130.874146 763.001953,130.990723 753.526733,130.990463 
	C746.583862,130.990280 739.641052,130.990433 733.812134,130.990433 
	C731.794373,133.800186 730.449463,135.673065 728.492126,138.048798 
M56.024532,88.350418 
	C51.386150,88.232277 46.726677,88.346695 42.115498,87.928543 
	C37.775570,87.534996 36.854248,89.363113 36.919540,93.346642 
	C37.143875,107.034019 37.136173,120.743431 30.730877,133.666443 
	C41.397408,133.666443 51.889744,133.666443 63.009293,133.666443 
	C57.278702,121.863297 56.808472,109.707222 56.974861,97.442474 
	C57.012985,94.632111 56.773258,91.817978 56.024532,88.350418 
M934.356323,85.002548 
	C931.190247,85.002632 928.007935,85.203888 924.862366,84.949768 
	C921.263428,84.659012 919.858459,85.735367 919.916870,89.627174 
	C920.126892,103.628761 920.169678,117.660500 913.920410,130.662598 
	C924.596924,130.662598 935.004517,130.662598 945.729309,130.662598 
	C944.388733,126.849098 942.494812,123.523460 942.131592,120.038330 
	C941.085144,109.996666 940.454773,99.897858 940.092773,89.806007 
	C939.962952,86.187416 939.130127,84.407288 934.356323,85.002548 
M914.145630,64.923576 
	C914.411255,65.712402 914.664795,66.505539 914.944519,67.289345 
	C917.533081,74.541931 924.698181,78.971458 932.178955,77.948723 
	C939.555908,76.940193 945.656738,69.794418 945.949646,61.819485 
	C946.171570,55.778599 940.001343,48.687592 933.346924,46.861824 
	C923.637512,44.197891 912.843933,52.682129 914.145630,64.923576 
M41.965248,79.853416 
	C50.982464,81.698174 57.703110,78.788010 61.210190,71.519989 
	C64.153305,65.420700 62.169891,56.564465 56.925571,52.568745 
	C51.888191,48.730698 46.306366,47.594440 40.549820,50.408676 
	C34.637352,53.299133 30.752007,58.016613 31.057806,64.981598 
	C31.359764,71.859039 34.622654,76.960266 41.965248,79.853416 
M67.998741,141.010666 
	C54.023109,141.009750 40.047241,141.053101 26.071993,140.979172 
	C22.218262,140.958801 19.332354,142.290817 19.113699,146.345215 
	C18.871977,150.827316 22.274235,151.031097 25.677528,151.020081 
	C39.653019,150.974792 53.628807,150.977341 67.604317,151.019165 
	C70.765938,151.028625 74.135353,150.854523 74.660141,147.113159 
	C75.194443,143.303970 72.395065,141.565781 67.998741,141.010666 
M63.073032,135.003769 
	C52.115913,135.003906 41.156494,134.893234 30.204088,135.120560 
	C28.511261,135.155701 26.850611,136.740982 25.175083,137.609390 
	C26.755022,138.407074 28.323456,139.868515 29.916740,139.896133 
	C41.368465,140.094635 52.825474,140.036545 64.280128,139.959747 
	C65.764450,139.949814 67.244934,139.366272 68.727188,139.048431 
	C68.844109,138.463425 68.961021,137.878403 69.077934,137.293396 
	C67.373505,136.531052 65.669083,135.768692 63.073032,135.003769 
M61.463783,82.356865 
	C52.515133,82.241707 43.565357,82.028877 34.619217,82.131783 
	C33.467297,82.145035 32.334209,83.795692 31.192396,84.687843 
	C32.299572,85.451851 33.391354,86.850700 34.516396,86.877983 
	C42.479839,87.071136 50.451649,87.070831 58.417233,86.930389 
	C60.767624,86.888947 63.164474,86.249718 61.463783,82.356865 
M928.510620,84.005440 
	C932.979492,84.003708 937.454407,84.128754 941.913452,83.918549 
	C943.158264,83.859856 944.356384,82.811134 945.575928,82.216545 
	C944.495667,81.167549 943.442932,79.243820 942.330750,79.208817 
	C933.898560,78.943382 925.453369,78.975922 917.016418,79.136703 
	C916.061401,79.154900 915.132568,80.544800 914.191528,81.298592 
	C915.158081,82.191376 916.059570,83.752983 917.103027,83.854385 
	C920.547119,84.189079 924.042542,83.995956 928.510620,84.005440 
z"/>
<path fill="#030303" opacity="1.000000" stroke="none" 
	d="
M386.322845,123.020401 
	C378.995422,118.137192 374.625854,111.681595 373.902374,102.562195 
	C373.092438,92.353157 371.592346,82.190102 370.074310,72.054703 
	C369.822266,70.371735 368.275116,68.279007 366.753204,67.509537 
	C363.027008,65.625603 363.641937,62.402344 364.258484,59.728470 
	C364.645142,58.051617 367.110046,55.557289 368.432037,55.680885 
	C370.712250,55.894058 373.386444,57.426407 374.808472,59.251858 
	C375.690033,60.383442 374.590973,63.080280 374.335236,65.068626 
	C374.118256,66.755516 373.100586,68.774490 373.697327,70.062881 
	C378.985901,81.481087 384.555450,92.769180 390.481873,105.003647 
	C390.997589,99.621399 391.575714,95.304268 391.793488,90.969040 
	C392.293365,81.017776 392.733246,71.059441 392.884094,61.099228 
	C392.905823,59.663765 391.412415,57.987312 390.240753,56.795391 
	C387.458954,53.965561 386.962708,51.117256 389.540344,47.984043 
	C391.917023,45.095081 394.952606,44.483673 397.891357,46.693832 
	C401.110046,49.114491 400.556335,52.352062 398.901398,55.627441 
	C398.139496,57.135471 396.992798,59.145466 397.431152,60.456039 
	C401.899323,73.814400 406.658264,87.075485 412.520752,100.396454 
	C415.234406,84.875069 417.948059,69.353683 420.666382,53.805767 
	C419.614746,52.874397 418.539429,52.076900 417.652771,51.106930 
	C415.276276,48.507156 415.203705,45.720127 417.486603,43.063358 
	C419.939392,40.208889 423.560272,39.860104 425.913879,42.021408 
	C427.475525,43.455494 428.408813,48.328861 427.357666,49.365704 
	C423.286530,53.381538 424.110382,57.603386 424.974792,62.239731 
	C427.158905,73.954742 429.177795,85.700508 431.307617,97.425835 
	C431.478241,98.365044 431.992218,99.241882 432.763611,101.213432 
	C436.441681,90.488762 439.801941,80.646759 443.197662,70.817017 
	C444.174408,67.989517 445.618011,65.265579 446.160706,62.365635 
	C446.538391,60.347099 446.337097,57.769073 445.346893,56.041435 
	C443.402740,52.649487 443.189087,49.680141 446.130524,47.112595 
	C449.079712,44.538292 452.616364,44.669910 454.912445,47.731853 
	C457.062805,50.599472 456.993256,54.384357 453.743225,56.576832 
	C449.716858,59.293041 450.965546,63.068256 451.098938,66.480095 
	C451.565216,78.408089 452.344208,90.323883 453.013672,102.243797 
	C453.047974,102.854263 453.168427,103.459892 453.417664,105.346344 
	C458.232910,95.605484 462.527435,86.929855 466.808350,78.247505 
	C467.611572,76.618446 468.411560,74.984337 469.122955,73.314194 
	C470.354645,70.422615 472.420105,67.965485 469.567352,64.347305 
	C467.780670,62.081196 468.671417,58.585197 471.788208,56.600868 
	C474.584015,54.820908 477.489777,54.871899 479.377167,57.349304 
	C481.568237,60.225376 481.699036,64.933838 478.747772,66.296013 
	C471.790955,69.506989 473.894714,75.528374 473.089142,80.519768 
	C471.666626,89.333771 471.023041,98.270981 469.725433,107.108459 
	C468.696808,114.114151 463.545807,118.498878 458.192200,122.651169 
	C456.791626,121.690674 455.953979,120.792885 454.924561,120.408470 
	C433.173126,112.285751 411.381226,112.204079 389.620728,120.343925 
	C388.363586,120.814178 387.415009,122.109200 386.322845,123.020401 
z"/>
<path fill="#010101" opacity="1.000000" stroke="none" 
	d="
M734.239380,111.830460 
	C739.077576,99.199547 749.452759,91.426689 758.019470,81.999275 
	C752.961975,81.393013 748.294739,79.143379 744.529602,84.725502 
	C741.458618,89.278404 735.789612,89.141068 731.890808,85.376999 
	C727.273621,80.919228 726.700806,75.727943 730.624512,71.895874 
	C734.425598,68.183533 738.564148,64.811165 742.287170,61.026516 
	C744.452942,58.824913 746.052307,56.073925 747.987793,53.634624 
	C748.871948,52.520386 749.769897,51.047840 750.974731,50.620239 
	C756.700745,48.588074 759.155457,44.830894 758.027649,38.801739 
	C757.939819,38.331802 758.047791,37.799511 758.173523,37.325027 
	C758.248657,37.041599 758.535767,36.814354 759.455017,35.604294 
	C762.339050,38.556412 765.099182,41.381760 768.164551,44.519512 
	C773.211121,41.007919 777.662476,44.564259 781.594666,47.508728 
	C791.845642,55.184967 797.896545,65.530968 797.887024,78.564529 
	C797.881714,85.814690 796.743408,93.065094 796.081055,100.312218 
	C796.006592,101.126572 795.968018,102.274834 795.457275,102.652763 
	C794.233337,103.558495 792.738098,104.097610 791.352417,104.784729 
	C791.076721,103.506996 790.553955,102.227188 790.564636,100.951836 
	C790.647156,91.055695 791.742432,81.065102 790.718567,71.292946 
	C789.781677,62.351582 784.669983,54.823406 776.926453,49.722458 
	C775.750549,48.947826 773.563660,49.707958 771.844360,49.758202 
	C772.389893,51.078381 772.557983,52.903503 773.541077,53.638302 
	C780.931274,59.162193 784.359314,66.821175 785.998474,75.566933 
	C788.073608,86.639168 785.696411,97.236809 783.008972,107.895897 
	C781.993042,111.925575 781.949829,116.274498 781.993225,120.472420 
	C782.024597,123.501373 781.661194,125.099548 778.071411,125.057220 
	C764.906860,124.902031 751.738770,124.925209 738.573425,125.041481 
	C735.035278,125.072716 733.777771,123.574669 733.982544,120.225098 
	C734.144958,117.567795 734.080566,114.896622 734.239380,111.830460 
z"/>
<path fill="#010101" opacity="1.000000" stroke="none" 
	d="
M348.080933,82.824982 
	C344.678925,89.588448 342.552795,90.895203 336.342896,89.938118 
	C335.132172,89.751511 333.397766,89.150398 332.979004,88.244171 
	C329.778351,81.317635 324.246765,84.586266 319.553040,84.235352 
	C319.278839,84.670242 319.004639,85.105141 318.730438,85.540031 
	C321.128448,87.794373 323.806305,89.820145 325.870392,92.347244 
	C331.381287,99.094284 337.152496,105.731323 341.724121,113.092796 
	C343.567352,116.060837 342.777802,120.809052 342.657440,124.730873 
	C342.632935,125.529839 340.245239,126.900566 338.933777,126.916336 
	C325.443909,127.078499 311.950195,127.089020 298.461426,126.886368 
	C297.298889,126.868904 295.019043,124.724693 295.189423,124.075081 
	C297.383240,115.713074 292.657837,108.558899 291.386902,100.842636 
	C289.379486,88.654984 288.709747,76.594185 295.360077,65.582367 
	C297.951141,61.291973 301.945374,57.848988 305.591766,53.687580 
	C304.242676,50.094666 301.587830,50.601154 298.873047,52.781006 
	C290.200165,59.744938 285.656097,69.086205 285.142181,79.973557 
	C284.730164,88.702530 285.575592,97.490860 285.876831,106.674774 
	C283.899200,107.288689 281.677429,107.512207 280.987732,103.938583 
	C278.279572,89.906555 276.752045,75.993813 284.102234,62.694408 
	C288.108337,55.445755 293.748932,49.968338 301.422729,46.953888 
	C303.576660,46.107773 306.344604,46.824760 309.594574,46.824760 
	C311.635345,44.393837 314.227722,41.305870 316.820099,38.217907 
	C317.402161,38.539162 317.984192,38.860416 318.566254,39.181667 
	C318.702911,41.038769 319.390747,43.071701 318.865662,44.717709 
	C317.635040,48.575378 320.009125,49.537163 322.525970,51.456436 
	C326.720886,54.655315 330.156586,58.836075 334.009583,62.500774 
	C337.858612,66.161743 341.744202,69.793541 345.771088,73.255135 
	C348.784607,75.845596 350.023621,78.695259 348.080933,82.824982 
z"/>
<path fill="#050505" opacity="1.000000" stroke="none" 
	d="
M887.005798,70.953339 
	C885.527771,72.598770 884.317749,74.679840 882.511230,75.791313 
	C879.531067,77.624863 878.875244,79.983788 878.942627,83.237823 
	C879.124634,92.022667 879.138245,100.816658 878.947876,109.601143 
	C878.854614,113.908768 879.165588,117.708069 882.937439,120.672684 
	C884.376953,121.804077 885.001709,123.971924 885.563293,126.086662 
	C864.140015,126.534363 843.151245,126.562851 822.162415,126.591331 
	C823.549805,124.458000 824.581787,121.931702 826.406250,120.281601 
	C829.284607,117.678291 830.158813,114.795067 830.062744,111.037880 
	C829.841675,102.391136 829.731323,93.723793 830.097656,85.086937 
	C830.295105,80.432861 829.029663,77.174194 824.936035,74.873856 
	C823.745667,74.204964 822.997864,72.748589 822.481812,71.210159 
	C844.279541,70.829178 865.642639,70.891266 887.005798,70.953339 
M860.493774,118.848373 
	C864.807983,118.847893 869.129822,118.988640 873.431213,118.753624 
	C874.594421,118.690086 875.695312,117.488670 876.824829,116.809563 
	C875.695862,116.160080 874.572815,114.957932 873.437012,114.945824 
	C860.827759,114.811409 848.216064,114.815498 835.606445,114.934654 
	C834.392578,114.946121 833.188477,115.981865 831.979797,116.542152 
	C833.187317,117.310333 834.378723,118.712761 835.604919,118.743759 
	C843.564514,118.944954 851.531616,118.847801 860.493774,118.848373 
M835.715210,80.324936 
	C848.170044,80.325012 860.625366,80.371040 873.079102,80.253601 
	C874.316101,80.241943 875.543762,79.233452 876.775818,78.687637 
	C875.847046,78.002800 874.924316,76.731056 873.988647,76.721558 
	C860.870972,76.588440 847.751221,76.595535 834.632996,76.695992 
	C833.751587,76.702736 832.878113,77.731522 832.000916,78.284958 
	C832.921631,78.963379 833.842346,79.641792 835.715210,80.324936 
z"/>
<path fill="#020202" opacity="1.000000" stroke="none" 
	d="
M92.070534,129.251846 
	C92.972878,127.750206 93.547905,125.828835 94.837204,124.823418 
	C99.196259,121.424141 100.395020,117.171661 100.112198,111.787712 
	C99.703781,104.012886 99.746056,96.188713 100.100815,88.408607 
	C100.332764,83.321777 99.454681,79.301712 94.498627,76.878311 
	C93.212769,76.249550 92.245964,74.968323 91.446381,73.602928 
	C113.898979,73.265511 136.037811,73.311943 158.176651,73.358383 
	C157.256241,74.489868 156.564163,76.153793 155.376877,76.662964 
	C149.457001,79.201637 148.627975,83.829407 148.914078,89.581398 
	C149.300354,97.347740 149.284470,105.161041 148.907852,112.928345 
	C148.679169,117.644905 149.841248,121.254112 153.584518,124.184448 
	C154.955490,125.257675 155.840759,126.951340 156.508911,128.730957 
	C134.736984,129.150574 113.403755,129.201202 92.070534,129.251846 
M102.297203,118.663773 
	C103.454643,119.562958 104.600647,121.226372 105.771271,121.243874 
	C118.386154,121.432541 131.005356,121.408295 143.621887,121.286728 
	C144.813583,121.275246 145.995102,120.206940 147.181335,119.629288 
	C145.966064,118.884430 144.762650,117.516998 143.533661,117.493629 
	C134.073807,117.313675 124.608353,117.329987 115.146019,117.424232 
	C111.045181,117.465073 106.947609,117.833183 102.297203,118.663773 
M141.318390,83.044571 
	C143.250580,82.375977 145.182770,81.707375 147.114960,81.038773 
	C145.142731,80.385712 143.178879,79.198753 141.196884,79.167633 
	C129.717331,78.987427 118.232590,79.010925 106.752174,79.161446 
	C105.214241,79.181618 103.690826,80.309395 102.160690,80.924263 
	C103.745140,81.631027 105.320198,82.924683 106.915550,82.950218 
	C118.062263,83.128571 129.213181,83.044571 141.318390,83.044571 
z"/>
<path fill="#030303" opacity="1.000000" stroke="none" 
	d="
M203.276337,124.898415 
	C200.987350,125.165810 199.652802,124.459595 200.211319,121.862610 
	C200.628769,119.921646 200.885757,117.921364 201.537689,116.060837 
	C202.860367,112.286140 202.529205,109.859833 198.845078,106.914230 
	C189.853317,99.724960 192.133179,83.913246 202.672012,76.182724 
	C208.389984,71.988426 214.117111,67.806633 219.871796,63.596004 
	C214.211578,57.352821 213.790344,55.431458 217.181580,52.324734 
	C220.217773,49.543278 223.472946,49.598473 225.878784,52.472229 
	C228.243240,55.296555 227.309601,59.257751 222.710892,63.436626 
	C225.735031,65.787529 228.674011,68.012268 231.546616,70.319611 
	C235.680054,73.639725 240.074844,76.710266 243.805359,80.440140 
	C251.157761,87.791252 250.842300,100.393562 243.047394,107.244308 
	C239.988129,109.933029 239.479889,112.391167 240.756027,115.905823 
	C241.427109,117.754036 242.006271,119.817787 241.851425,121.721123 
	C241.744186,123.039406 240.312592,124.249962 239.356064,124.937805 
	C239.227432,123.565529 239.557480,122.377754 239.153030,122.019753 
	C231.075943,114.870193 212.241577,114.747604 203.705322,121.830559 
	C203.118103,122.317810 203.399109,123.851418 203.276337,124.898415 
M218.134308,104.778526 
	C214.052139,105.775635 209.969971,106.772736 205.887802,107.769836 
	C205.898117,108.417442 205.908432,109.065048 205.918747,109.712646 
	C207.177139,109.980522 208.663025,110.820869 209.657837,110.425507 
	C217.455200,107.326683 225.121750,107.373306 232.900955,110.486717 
	C233.792542,110.843552 235.201553,109.907623 237.590820,109.219864 
	C230.834412,105.101768 225.006027,104.448059 218.134308,104.778526 
M222.522537,95.063942 
	C222.867523,93.183693 223.212509,91.303452 223.466675,89.918190 
	C225.188583,88.077232 229.931793,91.298431 228.655777,85.976913 
	C226.807312,85.768097 225.060562,85.570770 223.079834,85.347008 
	C223.079834,83.422798 223.079834,81.797600 223.079834,80.132744 
	C217.295151,78.632072 220.571808,83.815125 219.784592,84.472893 
	C216.942444,85.761848 215.095642,86.599403 213.248840,87.436958 
	C213.460251,87.926018 213.671661,88.415085 213.883087,88.904144 
	C215.632767,89.105682 217.382462,89.307228 217.895874,89.366364 
	C219.486618,91.820824 220.563812,93.482918 222.522537,95.063942 
z"/>
<path fill="#020202" opacity="1.000000" stroke="none" 
	d="
M639.098633,121.803314 
	C638.120667,121.399361 636.773315,121.241783 636.285583,120.510727 
	C635.918823,119.960838 636.637146,118.670082 636.903442,117.717796 
	C638.451294,112.182449 639.570740,107.868370 633.891663,102.570320 
	C625.807007,95.028091 629.214417,81.030182 639.227783,73.465408 
	C643.455566,70.271431 647.664429,67.041763 652.032471,64.047943 
	C654.958984,62.042175 656.095703,60.150677 652.943604,57.444820 
	C649.881348,54.816013 650.572571,51.461132 653.159668,49.807549 
	C655.174988,48.519478 659.156433,48.310001 661.069153,49.516140 
	C662.496948,50.416500 663.274475,55.394215 662.157898,56.727940 
	C658.391663,61.226501 661.167603,62.935642 664.381775,65.258408 
	C671.319580,70.272026 679.020508,74.401688 683.280762,82.480598 
	C686.683167,88.932648 685.450500,100.338310 678.491455,105.497711 
	C677.152893,106.490128 676.689758,109.376091 676.744751,111.363045 
	C676.821167,114.130890 677.921204,116.857559 678.229858,119.641014 
	C678.306213,120.329781 677.020874,121.169518 676.131592,121.564102 
	C675.674316,120.509514 675.659485,119.550735 675.188354,119.193260 
	C666.023132,112.239098 648.980591,112.135147 640.041077,119.023918 
	C639.396057,119.520981 639.397705,120.857239 639.098633,121.803314 
M660.247192,105.766289 
	C663.121033,106.480057 665.967529,107.371910 668.882202,107.820320 
	C670.054810,108.000710 671.377136,107.208519 672.631287,106.858971 
	C662.232605,100.675240 652.335388,100.616020 642.359558,106.432762 
	C643.574524,107.397697 644.936279,107.934906 646.211121,107.775810 
	C650.601074,107.228004 654.960693,106.436897 660.247192,105.766289 
M651.823242,86.705505 
	C653.136353,87.433525 654.679504,87.933319 655.695129,88.956619 
	C656.626099,89.894699 656.987732,91.397804 657.600220,92.651947 
	C658.149170,91.336838 658.724060,90.031685 659.234741,88.701889 
	C659.450562,88.139954 659.531189,87.526115 659.608154,87.206306 
	C661.615723,85.929024 666.324219,88.411583 664.625061,83.114548 
	C662.822205,83.000717 661.198792,82.898209 659.450134,82.787796 
	C659.317383,80.886887 659.193420,79.111191 659.059570,77.193604 
	C653.226257,76.020973 657.371521,81.714401 654.841553,82.900787 
	C653.428345,82.963470 651.801575,83.035629 649.411438,83.141655 
	C650.030457,84.590919 650.469849,85.619507 651.823242,86.705505 
z"/>
<path fill="#EEEEEE" opacity="1.000000" stroke="none" 
	d="
M576.446777,116.038406 
	C576.446777,116.038399 576.488403,116.223976 576.303833,116.473495 
	C574.356445,116.760300 572.372681,117.352242 570.864136,116.751259 
	C549.921387,108.407860 529.045166,108.438660 508.121521,116.763199 
	C506.649048,117.349030 504.981445,117.444427 503.404572,117.767868 
	C503.109283,117.063980 502.813965,116.360100 502.626495,115.131218 
	C501.842804,113.462746 501.041473,112.232910 500.043884,111.191032 
	C496.173462,107.148865 491.279785,103.733231 488.518280,99.051399 
	C481.365967,86.925430 488.977539,71.985741 502.996124,70.895248 
	C508.852966,70.439659 515.187622,72.080956 520.846863,74.071472 
	C529.492981,77.112564 535.753967,83.677666 541.088928,91.306625 
	C542.244934,89.698357 543.066223,88.468460 543.974182,87.306221 
	C551.362549,77.848434 560.679077,71.627838 572.870239,70.463814 
	C581.625793,69.627853 591.153137,74.268127 594.405518,81.330894 
	C598.201477,89.574448 595.818726,97.091835 590.096985,103.466110 
	C586.908264,107.018509 582.833435,109.768951 579.217773,112.948936 
	C578.186340,113.856148 577.364624,115.001976 576.446777,116.038406 
M503.243347,75.563934 
	C497.291168,76.563171 493.246643,79.756645 491.550842,85.683746 
	C489.622498,92.423744 492.054840,98.073029 496.968658,102.222374 
	C501.792664,106.295822 505.824768,112.091911 514.300049,109.349106 
	C522.053101,106.840034 530.449036,106.317360 538.597839,104.913109 
	C539.061035,89.417961 522.138367,74.896065 503.243347,75.563934 
M591.065247,89.419334 
	C591.355042,82.961853 587.562012,79.299507 582.211487,76.937126 
	C574.870178,73.695770 567.692017,75.277351 561.228577,79.094048 
	C551.308105,84.952141 542.407898,91.854942 543.742554,104.689789 
	C552.792786,106.849709 561.447571,108.929901 570.114441,110.958298 
	C570.880554,111.137596 571.901611,111.282379 572.507751,110.931297 
	C580.921631,106.057869 589.117004,100.946236 591.065247,89.419334 
z"/>
<path fill="#070707" opacity="1.000000" stroke="none" 
	d="
M576.853760,116.026871 
	C577.364624,115.001976 578.186340,113.856148 579.217773,112.948936 
	C582.833435,109.768951 586.908264,107.018509 590.096985,103.466110 
	C595.818726,97.091835 598.201477,89.574448 594.405518,81.330894 
	C591.153137,74.268127 581.625793,69.627853 572.870239,70.463814 
	C560.679077,71.627838 551.362549,77.848434 543.974182,87.306221 
	C543.066223,88.468460 542.244934,89.698357 541.088928,91.306625 
	C535.753967,83.677666 529.492981,77.112564 520.846863,74.071472 
	C515.187622,72.080956 508.852966,70.439659 502.996124,70.895248 
	C488.977539,71.985741 481.365967,86.925430 488.518280,99.051399 
	C491.279785,103.733231 496.173462,107.148865 500.043884,111.191032 
	C501.041473,112.232910 501.842804,113.462746 502.510986,114.866905 
	C493.722168,110.687897 487.265686,104.495049 484.082153,95.020218 
	C481.095490,86.131248 488.611908,68.921844 501.781708,66.958321 
	C509.766235,65.767876 516.814941,67.878029 523.693970,71.419044 
	C524.937317,72.059044 526.109131,72.837959 527.978943,73.947258 
	C526.376587,66.025276 529.001160,60.212719 534.540894,56.227367 
	C538.321289,53.507702 538.389954,50.528511 537.869995,47.897278 
	C534.868408,45.997284 532.608765,44.566933 530.349121,43.136581 
	C532.431519,41.675133 534.513977,40.213684 536.596375,38.752232 
	C536.648254,38.897869 536.700073,39.043507 536.751892,39.189144 
	C538.250122,37.490067 539.748291,35.790989 541.246521,34.091919 
	C542.544128,35.723816 543.841675,37.355701 544.674866,38.403530 
	C547.356445,40.255402 549.591125,41.798683 551.825806,43.341957 
	C549.669800,44.621254 547.513794,45.900555 544.233887,47.846771 
	C543.586914,50.177826 543.261230,53.344765 547.412476,56.143368 
	C552.434021,59.528667 555.397461,64.552078 555.052917,71.347824 
	C559.048828,69.944229 562.662109,68.502388 566.376526,67.402084 
	C578.465027,63.821110 593.198303,70.685577 596.390381,81.371582 
	C597.894775,86.407761 598.108643,92.832687 596.290833,97.638702 
	C593.012512,106.306183 586.250244,112.621719 576.853760,116.026871 
z"/>
<path fill="#030303" opacity="1.000000" stroke="none" 
	d="
M158.111954,130.010208 
	C158.743027,132.496185 159.768188,134.961319 159.901199,137.473663 
	C160.052933,140.339508 160.279709,142.397446 163.914108,142.030609 
	C167.306229,141.688217 167.021683,144.198593 166.965576,146.371872 
	C166.903488,148.777634 167.596527,151.685898 163.782059,151.936493 
	C162.458496,152.023438 161.125671,151.978226 159.797073,151.978333 
	C136.876083,151.980164 113.955101,151.979782 91.034111,151.979614 
	C82.071579,151.979553 81.911720,151.781082 83.624779,142.416946 
	C85.099655,142.163956 86.682640,141.892410 88.283188,141.617844 
	C88.928932,138.057755 89.552032,134.622543 90.737839,131.458862 
	C92.020424,132.082657 92.739326,132.740417 93.460304,132.742722 
	C114.010185,132.807907 134.560547,132.846832 155.109436,132.697800 
	C156.116714,132.690506 157.111404,130.945862 158.111954,130.010208 
M156.929398,140.112366 
	C136.123810,140.049606 115.318192,139.965652 94.512642,139.978455 
	C93.308067,139.979202 92.103981,140.765793 90.899666,141.186646 
	C90.940834,141.692398 90.982002,142.198135 91.023170,142.703873 
	C92.658501,143.010651 94.288788,143.548553 95.930046,143.584412 
	C103.252625,143.744308 110.578415,143.824860 117.902878,143.814667 
	C129.888916,143.797974 141.875870,143.751114 153.859497,143.545715 
	C155.512482,143.517380 158.900955,144.721680 156.929398,140.112366 
z"/>
<path fill="#050505" opacity="1.000000" stroke="none" 
	d="
M888.052612,128.005310 
	C888.699097,129.642105 889.853333,131.267776 889.889526,132.917953 
	C889.972229,136.691483 889.603577,140.401230 895.405884,138.955734 
	C895.664124,140.407715 895.946167,141.345749 895.980835,142.292862 
	C896.226440,148.994064 896.210205,148.997787 889.272827,148.998215 
	C865.684387,148.999680 842.096008,149.002594 818.507568,148.996201 
	C812.263000,148.994507 811.019592,147.677994 812.136963,141.718719 
	C812.330017,140.688904 813.920349,139.088409 814.759155,139.151962 
	C819.113953,139.481873 819.055237,136.863388 819.060486,133.792984 
	C819.063599,131.936096 819.711731,130.080292 820.543640,128.541656 
	C821.828064,129.261444 822.637756,130.011993 823.450012,130.014786 
	C843.864502,130.084915 864.279541,130.109238 884.693604,129.993118 
	C885.817017,129.986725 886.933105,128.697433 888.052612,128.005310 
M827.680725,140.993622 
	C846.134888,140.986862 864.589111,141.005753 883.042969,140.929871 
	C884.711914,140.923019 886.378296,140.305481 888.045898,139.971527 
	C888.014587,139.321579 887.983276,138.671631 887.951965,138.021683 
	C885.993469,137.729691 884.036194,137.193878 882.076294,137.184158 
	C866.116150,137.104965 850.155579,137.116699 834.195129,137.119217 
	C830.704346,137.119766 827.200989,137.043015 823.731018,137.332748 
	C822.769836,137.413025 821.908081,138.683289 821.000671,139.407578 
	C821.915344,139.921356 822.778198,140.620453 823.759766,140.895294 
	C824.687256,141.154999 825.739685,140.968826 827.680725,140.993622 
z"/>
<path fill="#010101" opacity="1.000000" stroke="none" 
	d="
M673.312439,122.389915 
	C669.656372,124.434929 666.000366,126.479935 662.036133,128.697311 
	C664.260071,131.189117 667.727905,133.045441 672.255981,133.024643 
	C680.717957,132.985779 689.303284,132.208130 697.280029,135.989731 
	C700.335938,137.438431 703.178467,139.337204 706.763123,141.402466 
	C703.914368,144.385727 701.783569,146.617142 699.290100,149.228302 
	C690.945129,142.722565 680.880249,143.637344 671.487610,141.521027 
	C661.177124,139.197906 651.783875,140.470032 641.819641,141.793900 
	C632.792786,142.993240 623.558167,142.541870 615.826843,149.258347 
	C613.580688,146.640381 611.561584,144.287125 609.206299,141.541916 
	C614.664062,135.751373 621.981018,133.660065 629.836426,133.081100 
	C634.310730,132.751328 638.828979,133.048233 643.326782,132.999573 
	C647.558594,132.953796 650.852844,131.137207 653.225586,128.084137 
	C649.067200,126.498878 645.160095,125.009399 641.306335,122.901886 
	C652.031494,116.032539 662.684082,115.559227 673.312439,122.389915 
z"/>
<path fill="#010101" opacity="1.000000" stroke="none" 
	d="
M236.993546,125.044037 
	C235.125137,126.346718 233.375076,127.892525 231.351944,128.877304 
	C229.646881,129.707275 227.624588,129.885498 225.256271,130.472839 
	C228.507629,134.705444 232.604004,135.740646 237.232605,136.044449 
	C244.631378,136.530090 252.023178,137.205521 259.388489,138.055939 
	C261.116272,138.255432 263.054657,139.127136 264.310181,140.311035 
	C266.011505,141.915283 270.946716,142.220032 268.010315,146.234879 
	C265.958618,149.040100 264.032867,152.431747 258.797241,149.247238 
	C254.496048,146.631042 248.823944,146.162857 243.694260,145.040619 
	C236.811996,143.534988 229.873810,142.278717 222.942047,141.011551 
	C221.781387,140.799362 220.499405,140.914368 219.328568,141.150909 
	C213.231262,142.382675 207.204666,144.248184 201.051819,144.844467 
	C194.385132,145.490570 188.016922,146.108795 182.094910,149.804932 
	C176.769882,153.128464 175.858353,147.008209 172.442154,144.792130 
	C177.883163,139.213531 184.062057,136.503250 191.176865,136.065979 
	C196.152161,135.760193 201.235489,136.526367 206.131561,135.832672 
	C210.103439,135.269928 213.868393,133.246918 218.397537,131.631760 
	C213.025711,129.328018 209.092606,127.641296 205.367554,125.359406 
	C216.104446,118.546570 226.580475,118.260597 236.993546,125.044037 
z"/>
<path fill="#010101" opacity="1.000000" stroke="none" 
	d="
M316.000000,151.003662 
	C306.841644,151.003555 298.179779,151.132446 289.527740,150.898514 
	C287.717468,150.849533 284.486176,149.550156 284.433685,148.675537 
	C284.292542,146.323563 285.236389,143.758408 286.282471,141.527863 
	C287.196716,139.578491 288.645935,137.771301 290.211243,136.268372 
	C291.610443,134.924957 293.476837,133.186478 295.161469,133.159821 
	C310.309784,132.919952 325.465057,132.924561 340.613281,133.168015 
	C342.109192,133.192062 343.712311,135.148758 345.011353,136.460327 
	C346.376251,137.838425 347.149384,139.941101 348.685791,140.982697 
	C352.147247,143.329300 351.307251,146.656586 350.544220,149.472946 
	C350.288422,150.417023 346.924957,150.907394 344.971710,150.937515 
	C335.483063,151.083878 325.990906,151.003647 316.000000,151.003662 
z"/>
<path fill="#000000" opacity="1.000000" stroke="none" 
	d="
M728.798340,137.797363 
	C730.449463,135.673065 731.794373,133.800186 733.812134,130.990433 
	C739.641052,130.990433 746.583862,130.990280 753.526733,130.990463 
	C763.001953,130.990723 772.480103,130.874146 781.949036,131.118378 
	C783.363281,131.154861 784.898315,132.717133 786.085754,133.873215 
	C787.847534,135.588516 789.712891,137.375427 790.855347,139.497330 
	C791.932556,141.498245 792.590088,144.000900 792.449402,146.220551 
	C792.404846,146.923203 789.200684,147.929443 787.436584,147.941635 
	C769.152039,148.068161 750.865967,148.065018 732.581116,147.958649 
	C730.454102,147.946289 728.332031,147.093277 726.207642,146.630005 
	C726.969116,143.769592 727.730652,140.909195 728.798340,137.797363 
z"/>
<path fill="#070707" opacity="1.000000" stroke="none" 
	d="
M56.342968,88.678001 
	C56.773258,91.817978 57.012985,94.632111 56.974861,97.442474 
	C56.808472,109.707222 57.278702,121.863297 63.009293,133.666443 
	C51.889744,133.666443 41.397408,133.666443 30.730877,133.666443 
	C37.136173,120.743431 37.143875,107.034019 36.919540,93.346642 
	C36.854248,89.363113 37.775570,87.534996 42.115498,87.928543 
	C46.726677,88.346695 51.386150,88.232277 56.342968,88.678001 
z"/>
<path fill="#000000" opacity="1.000000" stroke="none" 
	d="
M934.833984,85.002731 
	C939.130127,84.407288 939.962952,86.187416 940.092773,89.806007 
	C940.454773,99.897858 941.085144,109.996666 942.131592,120.038330 
	C942.494812,123.523460 944.388733,126.849098 945.729309,130.662598 
	C935.004517,130.662598 924.596924,130.662598 913.920410,130.662598 
	C920.169678,117.660500 920.126892,103.628761 919.916870,89.627174 
	C919.858459,85.735367 921.263428,84.659012 924.862366,84.949768 
	C928.007935,85.203888 931.190247,85.002632 934.833984,85.002731 
z"/>
<path fill="#030303" opacity="1.000000" stroke="none" 
	d="
M457.856689,123.607895 
	C457.883942,123.936691 458.035614,124.319214 457.920227,124.586403 
	C455.159698,130.978745 455.597473,137.371689 457.483032,144.016846 
	C443.126770,137.977173 428.361328,135.367126 413.313507,137.504776 
	C404.139893,138.807968 395.311462,142.540588 386.327972,145.181976 
	C386.245819,144.691620 385.936920,144.089661 386.115173,143.727448 
	C389.369141,137.115204 388.589020,130.505402 386.467041,123.729233 
	C388.385254,123.560616 390.201935,123.982498 391.682281,123.456963 
	C411.871307,116.289543 432.016144,116.245178 452.238983,123.322975 
	C453.936798,123.917221 455.976074,123.535942 457.856689,123.607895 
M392.453461,132.678467 
	C392.262360,133.533005 392.071259,134.387527 391.880127,135.242065 
	C393.073944,135.247498 394.443359,135.644760 395.435547,135.200195 
	C413.142670,127.266159 430.817505,127.301926 448.567230,135.052536 
	C449.777924,135.581192 451.305664,135.383713 453.468262,135.603424 
	C446.973053,126.594666 416.068573,120.337036 392.453461,132.678467 
z"/>
<path fill="#050505" opacity="1.000000" stroke="none" 
	d="
M818.827454,68.985550 
	C818.224426,68.144875 817.241394,67.363510 817.098999,66.450966 
	C816.820435,64.665726 816.999023,62.807194 817.009277,60.979134 
	C817.071045,49.976036 815.731323,51.145691 827.323547,50.964787 
	C830.537903,50.914623 832.534790,51.530914 832.022888,55.293308 
	C831.641235,58.098415 832.966553,59.188980 835.754883,59.033745 
	C838.542603,58.878544 841.345764,58.999691 844.388184,58.999691 
	C844.640137,57.508976 845.023743,56.407234 844.971985,55.326340 
	C844.815186,52.050339 846.383667,50.820934 849.506165,50.996204 
	C851.494263,51.107792 853.495667,50.957706 855.487732,51.024685 
	C863.747131,51.302368 863.204956,49.322876 864.529785,58.605347 
	C868.027405,58.605347 871.581604,58.605347 875.454773,58.605347 
	C875.641785,57.516739 876.030518,56.415901 875.979126,55.335995 
	C875.823730,52.069145 877.371399,50.947544 880.502197,50.984692 
	C893.844910,51.143017 891.892212,49.710167 891.924927,61.808064 
	C891.931274,64.142570 891.189514,66.479103 890.277588,68.506996 
	C888.627502,67.727333 887.494141,66.848145 886.357422,66.843750 
	C865.103210,66.761627 843.848450,66.745926 822.594788,66.877556 
	C821.334717,66.885361 820.083069,68.251503 818.827454,68.985550 
z"/>
<path fill="#010101" opacity="1.000000" stroke="none" 
	d="
M89.514305,70.262955 
	C89.080017,65.309395 88.574760,60.359184 88.340942,55.396183 
	C88.321419,54.981697 90.099686,54.189808 91.097618,54.082081 
	C93.069283,53.869236 95.094986,54.169922 97.070251,53.974434 
	C100.530334,53.632000 102.589088,54.520367 102.039619,58.525650 
	C101.690140,61.073154 102.917137,62.194679 105.498344,62.014923 
	C107.152077,61.899757 108.836914,61.847969 110.479164,62.028419 
	C114.263092,62.444191 116.529823,61.594620 116.172760,57.040169 
	C116.100777,56.122044 118.160225,54.358898 119.426842,54.152927 
	C122.179604,53.705299 125.063904,54.153183 127.877914,53.974667 
	C131.816544,53.724804 134.890244,54.054539 134.150421,59.369076 
	C134.048187,60.103508 135.746109,61.600750 136.828583,61.870567 
	C138.550812,62.299850 140.466705,61.871738 142.282196,62.025143 
	C145.455399,62.293259 147.530441,61.567165 147.013855,57.764645 
	C146.638763,55.003540 147.888336,54.066677 150.695541,53.946301 
	C161.997498,53.461636 162.043243,53.369526 161.942947,64.639297 
	C161.924805,66.677780 161.311371,68.710960 160.406677,70.504288 
	C158.446457,69.916725 157.053238,69.275085 155.658020,69.270721 
	C135.013901,69.206200 114.369476,69.206039 93.725365,69.270782 
	C92.320656,69.275192 90.917946,69.917381 89.514305,70.262955 
z"/>
<path fill="#000000" opacity="1.000000" stroke="none" 
	d="
M914.093201,64.513245 
	C912.843933,52.682129 923.637512,44.197891 933.346924,46.861824 
	C940.001343,48.687592 946.171570,55.778599 945.949646,61.819485 
	C945.656738,69.794418 939.555908,76.940193 932.178955,77.948723 
	C924.698181,78.971458 917.533081,74.541931 914.944519,67.289345 
	C914.664795,66.505539 914.411255,65.712402 914.093201,64.513245 
z"/>
<path fill="#070707" opacity="1.000000" stroke="none" 
	d="
M41.599922,79.718117 
	C34.622654,76.960266 31.359764,71.859039 31.057806,64.981598 
	C30.752007,58.016613 34.637352,53.299133 40.549820,50.408676 
	C46.306366,47.594440 51.888191,48.730698 56.925571,52.568745 
	C62.169891,56.564465 64.153305,65.420700 61.210190,71.519989 
	C57.703110,78.788010 50.982464,81.698174 41.599922,79.718117 
z"/>
<path fill="#030303" opacity="1.000000" stroke="none" 
	d="
M572.989075,141.087067 
	C569.334961,143.011871 565.876221,145.592545 561.993286,146.748993 
	C544.323730,152.011444 526.812073,151.077728 509.670135,144.245590 
	C508.368530,143.726822 507.309753,142.598938 506.357910,141.186096 
	C528.782837,131.151550 550.922546,130.937576 572.989075,141.087067 
z"/>
<path fill="#010101" opacity="1.000000" stroke="none" 
	d="
M951.015808,138.984344 
	C954.558655,138.615295 957.844177,139.388687 957.732056,143.542068 
	C957.624390,147.530273 954.470642,148.986450 950.686035,148.984024 
	C936.860046,148.975189 923.033752,149.030899 909.208313,148.945297 
	C905.672974,148.923416 902.361511,147.925247 902.081238,143.626648 
	C901.862610,140.274948 904.030457,138.925308 908.065308,138.995529 
	C922.958130,138.994888 936.987000,138.989624 951.015808,138.984344 
z"/>
<path fill="#070707" opacity="1.000000" stroke="none" 
	d="
M68.439056,141.019348 
	C72.395065,141.565781 75.194443,143.303970 74.660141,147.113159 
	C74.135353,150.854523 70.765938,151.028625 67.604317,151.019165 
	C53.628807,150.977341 39.653019,150.974792 25.677528,151.020081 
	C22.274235,151.031097 18.871977,150.827316 19.113699,146.345215 
	C19.332354,142.290817 22.218262,140.958801 26.071993,140.979172 
	C40.047241,141.053101 54.023109,141.009750 68.439056,141.019348 
z"/>
<path fill="#040404" opacity="1.000000" stroke="none" 
	d="
M453.989960,147.083282 
	C452.623047,148.049652 451.341156,149.682404 449.874756,149.869583 
	C442.670868,150.789154 435.411224,151.934143 428.183929,151.854141 
	C417.115936,151.731628 406.052551,150.748474 395.002441,149.926086 
	C393.349915,149.803116 391.780212,148.567093 390.429504,147.325958 
	C411.823486,138.763245 432.925751,138.580643 453.989960,147.083282 
z"/>
<path fill="#0B0B0B" opacity="1.000000" stroke="none" 
	d="
M576.294983,126.007896 
	C576.476562,129.868530 576.658203,133.729172 576.561096,137.789551 
	C574.845642,136.962219 573.544800,135.593109 571.951599,134.959824 
	C551.133972,126.685127 530.131592,126.731941 509.086517,134.008484 
	C506.695557,134.835205 504.617859,136.567947 502.394928,137.880585 
	C502.298706,134.787933 502.202515,131.695267 502.424377,128.367569 
	C504.434479,128.235123 506.358917,128.920761 507.783691,128.352859 
	C529.231506,119.803650 550.557434,119.716698 571.858154,128.811707 
	C574.566589,129.968155 576.500000,129.605484 576.294983,126.007896 
z"/>
<path fill="#0A0A0A" opacity="1.000000" stroke="none" 
	d="
M503.054260,118.043419 
	C504.981445,117.444427 506.649048,117.349030 508.121521,116.763199 
	C529.045166,108.438660 549.921387,108.407860 570.864136,116.751259 
	C572.372681,117.352242 574.356445,116.760300 576.398743,116.467316 
	C576.602112,118.980476 576.525940,121.749336 575.782410,124.708038 
	C553.336060,114.887512 531.180969,114.940987 508.816925,122.606445 
	C506.450348,123.417603 504.413361,125.190300 502.223450,126.516922 
	C502.383606,123.784264 502.543793,121.051613 503.054260,118.043419 
z"/>
<path fill="#EDEDED" opacity="1.000000" stroke="none" 
	d="
M502.438751,138.173492 
	C504.617859,136.567947 506.695557,134.835205 509.086517,134.008484 
	C530.131592,126.731941 551.133972,126.685127 571.951599,134.959824 
	C573.544800,135.593109 574.845642,136.962219 576.505127,138.276672 
	C575.691956,139.374695 574.655945,140.185349 573.304565,141.041534 
	C550.922546,130.937576 528.782837,131.151550 506.293243,140.842865 
	C504.833344,140.200607 503.657959,139.333496 502.438751,138.173492 
z"/>
<path fill="#EEEEEE" opacity="1.000000" stroke="none" 
	d="
M502.363190,126.679520 
	C504.413361,125.190300 506.450348,123.417603 508.816925,122.606445 
	C531.180969,114.940987 553.336060,114.887512 575.454224,124.991287 
	C575.836731,125.260437 575.880066,125.436195 576.109131,125.809929 
	C576.500000,129.605484 574.566589,129.968155 571.858154,128.811707 
	C550.557434,119.716698 529.231506,119.803650 507.783691,128.352859 
	C506.358917,128.920761 504.434479,128.235123 502.461487,127.858864 
	C502.459229,127.411873 502.566711,127.164177 502.363190,126.679520 
z"/>
<path fill="#E6E6E6" opacity="1.000000" stroke="none" 
	d="
M89.497818,70.527557 
	C90.917946,69.917381 92.320656,69.275192 93.725365,69.270782 
	C114.369476,69.206039 135.013901,69.206200 155.658020,69.270721 
	C157.053238,69.275085 158.446457,69.916725 160.031723,70.618629 
	C159.707108,71.684380 159.191376,72.393478 158.426147,73.230484 
	C136.037811,73.311943 113.898979,73.265511 91.279930,73.269852 
	C90.360252,72.477814 89.920792,71.634995 89.497818,70.527557 
z"/>
<path fill="#EBEBEB" opacity="1.000000" stroke="none" 
	d="
M457.792969,123.440735 
	C455.976074,123.535942 453.936798,123.917221 452.238983,123.322975 
	C432.016144,116.245178 411.871307,116.289543 391.682281,123.456963 
	C390.201935,123.982498 388.385254,123.560616 386.514984,123.283470 
	C386.305023,122.987740 386.279663,123.027481 386.301270,123.023941 
	C387.415009,122.109200 388.363586,120.814178 389.620728,120.343925 
	C411.381226,112.204079 433.173126,112.285751 454.924561,120.408470 
	C455.953979,120.792885 456.791626,121.690674 457.841980,122.677078 
	C457.965393,123.004761 457.729279,123.273567 457.792969,123.440735 
z"/>
<path fill="#E6E6E6" opacity="1.000000" stroke="none" 
	d="
M887.885620,127.811089 
	C886.933105,128.697433 885.817017,129.986725 884.693604,129.993118 
	C864.279541,130.109238 843.864502,130.084915 823.450012,130.014786 
	C822.637756,130.011993 821.828064,129.261444 820.923096,128.437195 
	C821.151367,127.653267 821.473694,127.291420 821.979248,126.760460 
	C843.151245,126.562851 864.140015,126.534363 885.601379,126.463463 
	C886.622192,126.819649 887.170471,127.218254 887.885620,127.811089 
z"/>
<path fill="#EDEDED" opacity="1.000000" stroke="none" 
	d="
M454.332764,147.063019 
	C432.925751,138.580643 411.823486,138.763245 390.351288,146.976349 
	C389.011719,146.954056 388.007599,146.761368 386.733398,146.118988 
	C386.420654,145.501053 386.377991,145.332809 386.335358,145.164566 
	C386.335358,145.164566 386.283905,145.125275 386.305939,145.153625 
	C395.311462,142.540588 404.139893,138.807968 413.313507,137.504776 
	C428.361328,135.367126 443.126770,137.977173 457.424988,144.447739 
	C456.721985,145.438248 455.698792,146.240494 454.332764,147.063019 
z"/>
<path fill="#E6E6E6" opacity="1.000000" stroke="none" 
	d="
M818.984497,69.271347 
	C820.083069,68.251503 821.334717,66.885361 822.594788,66.877556 
	C843.848450,66.745926 865.103210,66.761627 886.357422,66.843750 
	C887.494141,66.848145 888.627502,67.727333 889.883972,68.599358 
	C889.192993,69.568398 888.380432,70.137367 887.286865,70.829849 
	C865.642639,70.891266 844.279541,70.829178 822.454712,70.856842 
	C821.042542,70.483437 820.091980,70.020287 818.984497,69.271347 
z"/>
<path fill="#EFEFEF" opacity="1.000000" stroke="none" 
	d="
M157.895111,129.891693 
	C157.111404,130.945862 156.116714,132.690506 155.109436,132.697800 
	C134.560547,132.846832 114.010185,132.807907 93.460304,132.742722 
	C92.739326,132.740417 92.020424,132.082657 91.126740,131.367905 
	C91.264023,130.586273 91.575127,130.167130 91.978378,129.499908 
	C113.403755,129.201202 134.736984,129.150574 156.539062,129.080139 
	C157.162827,129.362442 157.386276,129.600037 157.895111,129.891693 
z"/>
<path fill="#070707" opacity="1.000000" stroke="none" 
	d="
M63.518845,135.005066 
	C65.669083,135.768692 67.373505,136.531052 69.077934,137.293396 
	C68.961021,137.878403 68.844109,138.463425 68.727188,139.048431 
	C67.244934,139.366272 65.764450,139.949814 64.280128,139.959747 
	C52.825474,140.036545 41.368465,140.094635 29.916740,139.896133 
	C28.323456,139.868515 26.755022,138.407074 25.175081,137.609390 
	C26.850611,136.740982 28.511261,135.155701 30.204088,135.120560 
	C41.156494,134.893234 52.115913,135.003906 63.518845,135.005066 
z"/>
<path fill="#000000" opacity="1.000000" stroke="none" 
	d="
M908.990295,137.007050 
	C906.837952,133.883820 909.066223,133.075287 911.411682,133.052826 
	C923.814880,132.934067 936.221008,132.927444 948.621765,133.139542 
	C949.520203,133.154907 950.383606,135.217880 950.651978,136.660538 
	C936.357178,136.997192 922.673706,137.002121 908.990295,137.007050 
z"/>
<path fill="#EBEBEB" opacity="1.000000" stroke="none" 
	d="
M237.331390,125.053253 
	C226.580475,118.260597 216.104446,118.546570 205.302094,125.009277 
	C204.642303,125.166878 204.256012,125.079430 203.573029,124.945198 
	C203.399109,123.851418 203.118103,122.317810 203.705322,121.830559 
	C212.241577,114.747604 231.075943,114.870193 239.153030,122.019753 
	C239.557480,122.377754 239.227432,123.565529 239.124481,124.697594 
	C238.562775,125.039642 238.116013,125.051056 237.331390,125.053253 
z"/>
<path fill="#EBEBEB" opacity="1.000000" stroke="none" 
	d="
M673.569702,122.417557 
	C662.684082,115.559227 652.031494,116.032539 641.150513,122.566238 
	C640.498230,122.562859 640.055115,122.277100 639.355347,121.897324 
	C639.397705,120.857239 639.396057,119.520981 640.041077,119.023918 
	C648.980591,112.135147 666.023132,112.239098 675.188354,119.193260 
	C675.659485,119.550735 675.674316,120.509514 675.741943,121.534393 
	C674.997192,122.068687 674.412048,122.256950 673.569702,122.417557 
z"/>
<path fill="#070707" opacity="1.000000" stroke="none" 
	d="
M61.790981,82.595451 
	C63.164474,86.249718 60.767624,86.888947 58.417233,86.930389 
	C50.451649,87.070831 42.479839,87.071136 34.516396,86.877983 
	C33.391354,86.850700 32.299572,85.451851 31.192396,84.687843 
	C32.334209,83.795692 33.467297,82.145035 34.619217,82.131783 
	C43.565357,82.028877 52.515133,82.241707 61.790981,82.595451 
z"/>
<path fill="#010101" opacity="1.000000" stroke="none" 
	d="
M928.014404,84.005447 
	C924.042542,83.995956 920.547119,84.189079 917.103027,83.854385 
	C916.059570,83.752983 915.158081,82.191376 914.191528,81.298615 
	C915.132568,80.544800 916.061401,79.154900 917.016418,79.136703 
	C925.453369,78.975922 933.898560,78.943382 942.330750,79.208817 
	C943.442932,79.243820 944.495667,81.167549 945.575928,82.216560 
	C944.356384,82.811134 943.158264,83.859856 941.913452,83.918549 
	C937.454407,84.128754 932.979492,84.003708 928.014404,84.005447 
z"/>
<path fill="#0B0B0B" opacity="1.000000" stroke="none" 
	d="
M908.887085,137.265076 
	C922.673706,137.002121 936.357178,136.997192 950.505981,136.984985 
	C950.980835,137.423874 950.990234,137.870041 951.007751,138.650269 
	C936.987000,138.989624 922.958130,138.994888 908.459595,138.993698 
	C908.254578,138.499191 908.519226,138.011154 908.887085,137.265076 
z"/>
<path fill="#030303" opacity="1.000000" stroke="none" 
	d="
M386.126160,145.239960 
	C386.377991,145.332809 386.420654,145.501053 386.484070,145.930847 
	C386.308838,145.900040 386.112915,145.607681 386.126160,145.239960 
z"/>
<path fill="#EDEDED" opacity="1.000000" stroke="none" 
	d="
M859.994995,118.848373 
	C851.531616,118.847801 843.564514,118.944954 835.604919,118.743759 
	C834.378723,118.712761 833.187317,117.310333 831.979797,116.542145 
	C833.188477,115.981865 834.392578,114.946121 835.606445,114.934654 
	C848.216064,114.815498 860.827759,114.811409 873.437012,114.945824 
	C874.572815,114.957932 875.695862,116.160080 876.824829,116.809555 
	C875.695312,117.488670 874.594421,118.690086 873.431213,118.753624 
	C869.129822,118.988640 864.807983,118.847893 859.994995,118.848373 
z"/>
<path fill="#FCFCFC" opacity="1.000000" stroke="none" 
	d="
M835.239136,80.322571 
	C833.842346,79.641792 832.921631,78.963379 832.000916,78.284958 
	C832.878113,77.731522 833.751587,76.702736 834.632996,76.695992 
	C847.751221,76.595535 860.870972,76.588440 873.988647,76.721558 
	C874.924316,76.731056 875.847046,78.002800 876.775818,78.687622 
	C875.543762,79.233452 874.316101,80.241943 873.079102,80.253601 
	C860.625366,80.371040 848.170044,80.325012 835.239136,80.322571 
z"/>
<path fill="#DEDEDE" opacity="1.000000" stroke="none" 
	d="
M102.572876,118.358208 
	C106.947609,117.833183 111.045181,117.465073 115.146019,117.424232 
	C124.608353,117.329987 134.073807,117.313675 143.533661,117.493629 
	C144.762650,117.516998 145.966064,118.884430 147.181335,119.629288 
	C145.995102,120.206940 144.813583,121.275246 143.621887,121.286728 
	C131.005356,121.408295 118.386154,121.432541 105.771271,121.243874 
	C104.600647,121.226372 103.454643,119.562958 102.572876,118.358208 
z"/>
<path fill="#EFEFEF" opacity="1.000000" stroke="none" 
	d="
M140.840576,83.044571 
	C129.213181,83.044571 118.062263,83.128571 106.915550,82.950218 
	C105.320198,82.924683 103.745140,81.631027 102.160690,80.924271 
	C103.690826,80.309395 105.214241,79.181618 106.752174,79.161446 
	C118.232590,79.010925 129.717331,78.987427 141.196884,79.167633 
	C143.178879,79.198753 145.142731,80.385712 147.114960,81.038773 
	C145.182770,81.707375 143.250580,82.375977 140.840576,83.044571 
z"/>
<path fill="#EFEFEF" opacity="1.000000" stroke="none" 
	d="
M218.552460,104.750015 
	C225.006027,104.448059 230.834412,105.101768 237.590820,109.219864 
	C235.201553,109.907623 233.792542,110.843552 232.900955,110.486717 
	C225.121750,107.373306 217.455200,107.326683 209.657837,110.425507 
	C208.663025,110.820869 207.177139,109.980522 205.918747,109.712646 
	C205.908432,109.065048 205.898117,108.417442 205.887802,107.769836 
	C209.969971,106.772736 214.052139,105.775635 218.552460,104.750015 
z"/>
<path fill="#EFEFEF" opacity="1.000000" stroke="none" 
	d="
M222.081787,95.104477 
	C220.563812,93.482918 219.486618,91.820824 217.895874,89.366364 
	C217.382462,89.307228 215.632767,89.105682 213.883087,88.904144 
	C213.671661,88.415085 213.460251,87.926018 213.248840,87.436958 
	C215.095642,86.599403 216.942444,85.761848 219.784592,84.472893 
	C220.571808,83.815125 217.295151,78.632072 223.079834,80.132744 
	C223.079834,81.797600 223.079834,83.422798 223.079834,85.347008 
	C225.060562,85.570770 226.807312,85.768097 228.655777,85.976913 
	C229.931793,91.298431 225.188583,88.077232 223.466675,89.918190 
	C223.212509,91.303452 222.867523,93.183693 222.081787,95.104477 
z"/>
<path fill="#E6E6E6" opacity="1.000000" stroke="none" 
	d="
M659.789551,105.752388 
	C654.960693,106.436897 650.601074,107.228004 646.211121,107.775810 
	C644.936279,107.934906 643.574524,107.397697 642.359558,106.432762 
	C652.335388,100.616020 662.232605,100.675240 672.631287,106.858971 
	C671.377136,107.208519 670.054810,108.000710 668.882202,107.820320 
	C665.967529,107.371910 663.121033,106.480057 659.789551,105.752388 
z"/>
<path fill="#EFEFEF" opacity="1.000000" stroke="none" 
	d="
M651.366211,86.676804 
	C650.469849,85.619507 650.030457,84.590919 649.411438,83.141655 
	C651.801575,83.035629 653.428345,82.963470 654.841553,82.900787 
	C657.371521,81.714401 653.226257,76.020973 659.059570,77.193604 
	C659.193420,79.111191 659.317383,80.886887 659.450134,82.787796 
	C661.198792,82.898209 662.822205,83.000717 664.625061,83.114548 
	C666.324219,88.411583 661.615723,85.929024 659.608154,87.206306 
	C659.531189,87.526115 659.450562,88.139954 659.234741,88.701889 
	C658.724060,90.031685 658.149170,91.336838 657.600220,92.651947 
	C656.987732,91.397804 656.626099,89.894699 655.695129,88.956619 
	C654.679504,87.933319 653.136353,87.433525 651.366211,86.676804 
z"/>
<path fill="#050505" opacity="1.000000" stroke="none" 
	d="
M503.637543,75.493469 
	C522.138367,74.896065 539.061035,89.417961 538.597839,104.913109 
	C530.449036,106.317360 522.053101,106.840034 514.300049,109.349106 
	C505.824768,112.091911 501.792664,106.295822 496.968658,102.222374 
	C492.054840,98.073029 489.622498,92.423744 491.550842,85.683746 
	C493.246643,79.756645 497.291168,76.563171 503.637543,75.493469 
z"/>
<path fill="#040404" opacity="1.000000" stroke="none" 
	d="
M591.054077,89.833344 
	C589.117004,100.946236 580.921631,106.057869 572.507751,110.931297 
	C571.901611,111.282379 570.880554,111.137596 570.114441,110.958298 
	C561.447571,108.929901 552.792786,106.849709 543.742554,104.689789 
	C542.407898,91.854942 551.308105,84.952141 561.228577,79.094048 
	C567.692017,75.277351 574.870178,73.695770 582.211487,76.937126 
	C587.562012,79.299507 591.355042,82.961853 591.054077,89.833344 
z"/>
<path fill="#E6E6E6" opacity="1.000000" stroke="none" 
	d="
M157.315033,140.344482 
	C158.900955,144.721680 155.512482,143.517380 153.859497,143.545715 
	C141.875870,143.751114 129.888916,143.797974 117.902878,143.814667 
	C110.578415,143.824860 103.252625,143.744308 95.930046,143.584412 
	C94.288788,143.548553 92.658501,143.010651 91.023170,142.703873 
	C90.982002,142.198135 90.940834,141.692398 90.899666,141.186646 
	C92.103981,140.765793 93.308067,139.979202 94.512642,139.978455 
	C115.318192,139.965652 136.123810,140.049606 157.315033,140.344482 
z"/>
<path fill="#EBEBEB" opacity="1.000000" stroke="none" 
	d="
M827.208923,140.986206 
	C825.739685,140.968826 824.687256,141.154999 823.759766,140.895294 
	C822.778198,140.620453 821.915344,139.921356 821.000671,139.407578 
	C821.908081,138.683289 822.769836,137.413025 823.731018,137.332748 
	C827.200989,137.043015 830.704346,137.119766 834.195129,137.119217 
	C850.155579,137.116699 866.116150,137.104965 882.076294,137.184158 
	C884.036194,137.193878 885.993469,137.729691 887.951965,138.021683 
	C887.983276,138.671631 888.014587,139.321579 888.045898,139.971527 
	C886.378296,140.305481 884.711914,140.923019 883.042969,140.929871 
	C864.589111,141.005753 846.134888,140.986862 827.208923,140.986206 
z"/>
<path fill="#EDEDED" opacity="1.000000" stroke="none" 
	d="
M392.730347,132.450775 
	C416.068573,120.337036 446.973053,126.594666 453.468262,135.603424 
	C451.305664,135.383713 449.777924,135.581192 448.567230,135.052536 
	C430.817505,127.301926 413.142670,127.266159 395.435547,135.200195 
	C394.443359,135.644760 393.073944,135.247498 391.880127,135.242065 
	C392.071259,134.387527 392.262360,133.533005 392.730347,132.450775 
z"/>
</svg>